<?xml version="1.0" encoding="UTF-8"?>
<svg xmlns="http://www.w3.org/2000/svg" xmlns:xlink="http://www.w3.org/1999/xlink" width="192px" height="192px" viewBox="0 0 192 192" version="1.1">
<g id="surface1">
<path style=" stroke:none;fill-rule:nonzero;fill:rgb(16.470589%,17.647059%,19.215687%);fill-opacity:1;" d="M 0 0 C 63.359375 0 126.71875 0 192 0 C 192 63.359375 192 126.71875 192 192 C 128.640625 192 65.28125 192 0 192 C 0 128.640625 0 65.28125 0 0 Z M 0 0 "/>
<path style=" stroke:none;fill-rule:nonzero;fill:rgb(16.862746%,17.647059%,18.82353%);fill-opacity:1;" d="M 95.742188 48.316406 C 95.886719 48.316406 96.035156 48.316406 96.1875 48.316406 C 98.664062 48.328125 101.058594 48.5 103.5 48.9375 C 103.683594 48.96875 103.863281 48.996094 104.054688 49.027344 C 111.234375 50.222656 118.058594 53.09375 123.9375 57.375 C 124.046875 57.453125 124.152344 57.53125 124.265625 57.613281 C 125.886719 58.796875 127.367188 60.105469 128.8125 61.5 C 128.9375 61.621094 129.066406 61.742188 129.195312 61.867188 C 130.875 63.484375 132.457031 65.121094 133.835938 67 C 134.054688 67.304688 134.285156 67.601562 134.511719 67.902344 C 136.882812 71.046875 138.742188 74.554688 140.25 78.1875 C 140.335938 78.386719 140.425781 78.589844 140.515625 78.796875 C 142.730469 84.15625 143.519531 89.917969 143.507812 95.671875 C 143.507812 95.859375 143.507812 96.050781 143.507812 96.242188 C 143.5 99.410156 143.300781 102.449219 142.6875 105.5625 C 142.65625 105.738281 142.621094 105.914062 142.585938 106.09375 C 141.296875 112.730469 138.292969 119.410156 134.0625 124.6875 C 133.9375 124.847656 133.8125 125.007812 133.683594 125.171875 C 132.917969 126.152344 132.113281 127.082031 131.273438 127.996094 C 130.933594 128.375 130.605469 128.761719 130.277344 129.152344 C 128.367188 131.328125 126.085938 133.121094 123.75 134.8125 C 123.636719 134.894531 123.519531 134.980469 123.402344 135.066406 C 120.394531 137.210938 117.09375 138.933594 113.65625 140.277344 C 113.273438 140.425781 112.898438 140.582031 112.519531 140.738281 C 110.328125 141.625 108.050781 142.164062 105.75 142.6875 C 105.613281 142.71875 105.472656 142.75 105.332031 142.785156 C 99.792969 144.050781 93.699219 144.027344 88.125 143.0625 C 87.96875 143.035156 87.808594 143.011719 87.648438 142.984375 C 80.941406 141.855469 74.335938 139.167969 68.8125 135.1875 C 68.625 135.054688 68.625 135.054688 68.433594 134.917969 C 66.949219 133.84375 65.53125 132.734375 64.195312 131.476562 C 63.8125 131.121094 63.425781 130.785156 63.023438 130.453125 C 57.75 125.847656 54.136719 119.492188 51.539062 113.085938 C 51.398438 112.746094 51.257812 112.414062 51.113281 112.078125 C 48.066406 104.757812 47.621094 95.875 48.9375 88.125 C 48.976562 87.886719 48.976562 87.886719 49.015625 87.640625 C 50.5 78.769531 54.703125 70.421875 60.847656 63.875 C 61.230469 63.464844 61.597656 63.042969 61.957031 62.613281 C 68.363281 55.265625 78.105469 51.003906 87.445312 49.078125 C 87.582031 49.050781 87.714844 49.019531 87.855469 48.992188 C 90.472656 48.480469 93.082031 48.304688 95.742188 48.316406 Z M 95.742188 48.316406 "/>
<path style=" stroke:none;fill-rule:nonzero;fill:rgb(16.862746%,18.039216%,19.215687%);fill-opacity:1;" d="M 84.375 74.8125 C 84.363281 74.921875 84.347656 75.03125 84.335938 75.148438 C 83.96875 78.679688 84.117188 82.195312 84.75 85.6875 C 84.792969 85.933594 84.792969 85.933594 84.839844 86.183594 C 85.632812 90.472656 87.277344 94.492188 89.03125 98.464844 C 92.949219 107.363281 96.359375 116.441406 98.25 126 C 98.296875 126.230469 98.34375 126.460938 98.390625 126.699219 C 98.527344 127.390625 98.660156 128.082031 98.789062 128.777344 C 98.828125 128.984375 98.871094 129.191406 98.910156 129.402344 C 99.207031 131.023438 99.1875 132.355469 99.1875 134.0625 C 94.792969 134.0625 90.402344 134.0625 85.875 134.0625 C 85.6875 132.761719 85.6875 132.761719 85.5 131.4375 C 84.601562 127.636719 82.589844 124.222656 79.277344 122.046875 C 76.449219 120.316406 73.5625 119.578125 70.269531 119.546875 C 70.039062 119.542969 69.808594 119.539062 69.570312 119.535156 C 68.84375 119.523438 68.113281 119.515625 67.382812 119.507812 C 66.886719 119.5 66.386719 119.492188 65.890625 119.484375 C 64.675781 119.46875 63.464844 119.453125 62.25 119.4375 C 62.226562 118.546875 62.296875 117.765625 62.496094 116.898438 C 62.550781 116.664062 62.605469 116.429688 62.660156 116.191406 C 62.71875 115.941406 62.777344 115.691406 62.835938 115.441406 C 62.894531 115.179688 62.957031 114.921875 63.015625 114.660156 C 63.140625 114.132812 63.261719 113.601562 63.386719 113.074219 C 63.546875 112.382812 63.699219 111.695312 63.855469 111.003906 C 65.300781 104.5 67.246094 97.902344 70.125 91.875 C 70.207031 91.699219 70.289062 91.523438 70.375 91.34375 C 71.839844 88.269531 73.492188 85.390625 75.5625 82.6875 C 75.738281 82.457031 75.738281 82.457031 75.917969 82.222656 C 77.679688 79.96875 79.617188 78.019531 81.878906 76.265625 C 81.980469 76.1875 82.085938 76.105469 82.191406 76.023438 C 83.773438 74.8125 83.773438 74.8125 84.375 74.8125 Z M 84.375 74.8125 "/>
<path style=" stroke:none;fill-rule:nonzero;fill:rgb(87.058824%,75.294119%,43.921569%);fill-opacity:1;" d="M 86.8125 71.4375 C 86.839844 72.265625 86.742188 72.976562 86.542969 73.78125 C 86.097656 75.589844 86.015625 77.304688 86.015625 79.160156 C 86.015625 79.304688 86.015625 79.449219 86.015625 79.59375 C 86.019531 81.800781 86.121094 83.910156 86.625 86.0625 C 86.660156 86.21875 86.699219 86.378906 86.734375 86.542969 C 86.988281 87.636719 87.261719 88.726562 87.5625 89.8125 C 87.601562 89.953125 87.640625 90.097656 87.679688 90.242188 C 88.085938 91.683594 88.65625 93.058594 89.226562 94.441406 C 89.335938 94.707031 89.445312 94.972656 89.550781 95.238281 C 90.332031 97.144531 91.128906 99.039062 91.929688 100.9375 C 92.753906 102.890625 93.546875 104.855469 94.324219 106.828125 C 94.375 106.957031 94.425781 107.085938 94.480469 107.21875 C 95.070312 108.722656 95.644531 110.230469 96.1875 111.75 C 96.75 110.796875 96.632812 109.789062 96.632812 108.714844 C 96.632812 108.496094 96.632812 108.277344 96.632812 108.054688 C 96.609375 106.257812 96.332031 104.652344 95.8125 102.9375 C 95.683594 102.492188 95.683594 102.492188 95.625 102.1875 C 95.914062 101.898438 96.1875 101.96875 96.589844 101.960938 C 96.757812 101.957031 96.921875 101.953125 97.089844 101.949219 C 97.359375 101.945312 97.359375 101.945312 97.636719 101.941406 C 97.910156 101.933594 97.910156 101.933594 98.191406 101.929688 C 98.777344 101.917969 99.363281 101.90625 99.949219 101.894531 C 100.347656 101.886719 100.742188 101.878906 101.140625 101.871094 C 102.113281 101.851562 103.089844 101.832031 104.0625 101.8125 C 102.324219 99.472656 102.324219 99.472656 100.5 97.195312 C 99.824219 96.382812 99.195312 95.578125 98.625 94.6875 C 99.058594 94.21875 99.058594 94.21875 99.5625 93.75 C 99.75 93.75 99.933594 93.75 100.125 93.75 C 100.460938 94.128906 100.761719 94.503906 101.0625 94.910156 C 101.246094 95.152344 101.433594 95.398438 101.621094 95.640625 C 101.714844 95.765625 101.808594 95.886719 101.90625 96.015625 C 102.320312 96.546875 102.765625 97.050781 103.207031 97.558594 C 105.859375 100.644531 107.957031 104.140625 109.6875 107.8125 C 109.839844 108.128906 109.839844 108.128906 109.992188 108.453125 C 110.828125 110.308594 111.421875 112.222656 111.9375 114.1875 C 111.972656 114.316406 112.003906 114.445312 112.042969 114.574219 C 113.6875 121.054688 112.28125 128.054688 108.957031 133.730469 C 108.652344 134.226562 108.332031 134.707031 108 135.1875 C 107.917969 135.3125 107.835938 135.441406 107.75 135.570312 C 107.519531 135.890625 107.519531 135.890625 107.0625 136.3125 C 106.105469 136.292969 106.105469 136.292969 105.75 135.9375 C 105.71875 135.660156 105.699219 135.382812 105.683594 135.101562 C 105.546875 133.03125 105.390625 131.246094 104.4375 129.375 C 104.296875 129.09375 104.296875 129.09375 104.15625 128.808594 C 103.011719 126.671875 101.355469 124.949219 99.375 123.5625 C 99.433594 123.695312 99.488281 123.824219 99.546875 123.960938 C 99.757812 124.523438 99.875 125.054688 99.976562 125.648438 C 100.019531 125.871094 100.058594 126.089844 100.097656 126.320312 C 100.136719 126.550781 100.175781 126.78125 100.21875 127.019531 C 100.257812 127.242188 100.296875 127.46875 100.339844 127.699219 C 100.460938 128.382812 100.574219 129.066406 100.6875 129.75 C 100.742188 130.066406 100.742188 130.066406 100.800781 130.386719 C 101.101562 132.238281 101.0625 133.804688 101.0625 135.75 C 95.492188 135.75 89.925781 135.75 84.1875 135.75 C 84.125 134.574219 84.0625 133.398438 84 132.1875 C 83.007812 128.335938 81.125 125.140625 77.640625 123.046875 C 75.605469 121.972656 73.4375 121.304688 71.128906 121.273438 C 70.882812 121.269531 70.640625 121.265625 70.390625 121.261719 C 70.125 121.257812 69.863281 121.257812 69.597656 121.253906 C 69.328125 121.25 69.054688 121.246094 68.785156 121.242188 C 68.070312 121.230469 67.359375 121.222656 66.648438 121.210938 C 65.921875 121.203125 65.191406 121.191406 64.464844 121.183594 C 63.039062 121.164062 61.613281 121.144531 60.1875 121.125 C 60.640625 117.460938 61.382812 113.898438 62.28125 110.316406 C 62.460938 109.589844 62.628906 108.863281 62.796875 108.136719 C 64.082031 102.566406 65.867188 97.074219 68.25 91.875 C 68.324219 91.710938 68.398438 91.546875 68.476562 91.378906 C 70.472656 86.984375 72.90625 82.921875 76.125 79.3125 C 76.214844 79.210938 76.300781 79.113281 76.390625 79.011719 C 77.425781 77.84375 78.46875 76.726562 79.6875 75.75 C 79.863281 75.605469 80.039062 75.460938 80.222656 75.3125 C 85.0625 71.4375 85.0625 71.4375 86.8125 71.4375 Z M 82.875 75.550781 C 82.765625 75.625 82.65625 75.703125 82.542969 75.78125 C 81.519531 76.507812 80.605469 77.332031 79.6875 78.1875 C 79.394531 78.441406 79.101562 78.695312 78.808594 78.949219 C 78.027344 79.644531 77.34375 80.378906 76.6875 81.1875 C 76.546875 81.359375 76.40625 81.535156 76.261719 81.710938 C 70.207031 89.308594 66.964844 98.765625 64.535156 108.058594 C 64.492188 108.230469 64.445312 108.402344 64.398438 108.578125 C 63.667969 111.429688 63.054688 114.3125 62.4375 117.1875 C 62.398438 117.34375 62.363281 117.5 62.324219 117.664062 C 62.230469 118.257812 62.238281 118.835938 62.25 119.4375 C 62.375 119.4375 62.5 119.441406 62.632812 119.441406 C 63.953125 119.453125 65.273438 119.46875 66.59375 119.488281 C 67.082031 119.492188 67.574219 119.5 68.066406 119.503906 C 68.777344 119.507812 69.488281 119.519531 70.195312 119.527344 C 70.414062 119.53125 70.628906 119.53125 70.851562 119.53125 C 72.945312 119.570312 75.011719 119.910156 76.921875 120.796875 C 77.046875 120.855469 77.171875 120.910156 77.300781 120.96875 C 78.375 121.472656 79.328125 122.066406 80.25 122.8125 C 80.40625 122.933594 80.5625 123.058594 80.722656 123.183594 C 84.03125 125.960938 85.410156 129.886719 85.875 134.0625 C 90.269531 134.0625 94.660156 134.0625 99.1875 134.0625 C 99.1875 132.171875 99.144531 130.589844 98.789062 128.777344 C 98.746094 128.554688 98.707031 128.332031 98.664062 128.101562 C 98.527344 127.402344 98.390625 126.699219 98.25 126 C 98.203125 125.769531 98.15625 125.539062 98.109375 125.304688 C 97.972656 124.621094 97.832031 123.9375 97.6875 123.257812 C 97.644531 123.054688 97.601562 122.855469 97.558594 122.648438 C 96.941406 119.773438 96.089844 116.972656 95.15625 114.1875 C 95.085938 113.972656 95.085938 113.972656 95.011719 113.753906 C 93.449219 109.09375 91.652344 104.542969 89.699219 100.035156 C 88.691406 97.707031 87.726562 95.367188 86.8125 93 C 86.753906 92.855469 86.699219 92.710938 86.640625 92.558594 C 84.476562 86.976562 83.644531 80.761719 84.375 74.8125 C 83.773438 74.8125 83.355469 75.214844 82.875 75.550781 Z M 82.875 75.550781 "/>
<path style=" stroke:none;fill-rule:nonzero;fill:rgb(87.058824%,74.901962%,43.921569%);fill-opacity:1;" d="M 95.742188 48.316406 C 95.886719 48.316406 96.035156 48.316406 96.1875 48.316406 C 98.664062 48.328125 101.058594 48.5 103.5 48.9375 C 103.683594 48.96875 103.863281 48.996094 104.054688 49.027344 C 111.234375 50.222656 118.058594 53.09375 123.9375 57.375 C 124.046875 57.453125 124.152344 57.53125 124.265625 57.613281 C 125.886719 58.796875 127.367188 60.105469 128.8125 61.5 C 128.9375 61.621094 129.066406 61.742188 129.195312 61.867188 C 130.875 63.484375 132.457031 65.121094 133.835938 67 C 134.054688 67.304688 134.285156 67.601562 134.511719 67.902344 C 136.882812 71.046875 138.742188 74.554688 140.25 78.1875 C 140.335938 78.386719 140.425781 78.589844 140.515625 78.796875 C 142.730469 84.15625 143.519531 89.917969 143.507812 95.671875 C 143.507812 95.859375 143.507812 96.050781 143.507812 96.242188 C 143.5 99.410156 143.300781 102.449219 142.6875 105.5625 C 142.65625 105.738281 142.621094 105.914062 142.585938 106.09375 C 141.296875 112.730469 138.292969 119.410156 134.0625 124.6875 C 133.9375 124.847656 133.8125 125.007812 133.683594 125.171875 C 132.917969 126.152344 132.113281 127.082031 131.273438 127.996094 C 130.933594 128.375 130.605469 128.761719 130.277344 129.152344 C 128.367188 131.328125 126.085938 133.121094 123.75 134.8125 C 123.636719 134.894531 123.519531 134.980469 123.402344 135.066406 C 120.394531 137.210938 117.09375 138.933594 113.65625 140.277344 C 113.273438 140.425781 112.898438 140.582031 112.519531 140.738281 C 110.328125 141.625 108.050781 142.164062 105.75 142.6875 C 105.613281 142.71875 105.472656 142.75 105.332031 142.785156 C 99.792969 144.050781 93.699219 144.027344 88.125 143.0625 C 87.96875 143.035156 87.808594 143.011719 87.648438 142.984375 C 80.941406 141.855469 74.335938 139.167969 68.8125 135.1875 C 68.625 135.054688 68.625 135.054688 68.433594 134.917969 C 66.949219 133.84375 65.53125 132.734375 64.195312 131.476562 C 63.8125 131.121094 63.425781 130.785156 63.023438 130.453125 C 57.75 125.847656 54.136719 119.492188 51.539062 113.085938 C 51.398438 112.746094 51.257812 112.414062 51.113281 112.078125 C 48.066406 104.757812 47.621094 95.875 48.9375 88.125 C 48.976562 87.886719 48.976562 87.886719 49.015625 87.640625 C 50.5 78.769531 54.703125 70.421875 60.847656 63.875 C 61.230469 63.464844 61.597656 63.042969 61.957031 62.613281 C 68.363281 55.265625 78.105469 51.003906 87.445312 49.078125 C 87.582031 49.050781 87.714844 49.019531 87.855469 48.992188 C 90.472656 48.480469 93.082031 48.304688 95.742188 48.316406 Z M 86.660156 51.046875 C 86.375 51.109375 86.375 51.109375 86.082031 51.171875 C 77.757812 53.003906 70.257812 57.097656 64.125 63 C 64.019531 63.101562 63.910156 63.207031 63.800781 63.3125 C 58.996094 67.960938 55.601562 73.535156 53.0625 79.6875 C 52.980469 79.882812 52.902344 80.074219 52.820312 80.273438 C 49.34375 89.3125 49.367188 99.511719 51.9375 108.75 C 51.992188 108.953125 52.050781 109.15625 52.105469 109.363281 C 54.070312 116.339844 58 122.683594 63 127.875 C 63.15625 128.039062 63.15625 128.039062 63.3125 128.203125 C 64.851562 129.8125 66.457031 131.242188 68.25 132.5625 C 68.355469 132.644531 68.464844 132.722656 68.574219 132.804688 C 70.214844 134.027344 71.914062 135.109375 73.6875 136.125 C 74.003906 136.308594 74.003906 136.308594 74.324219 136.496094 C 78.890625 139.0625 83.914062 140.566406 89.0625 141.375 C 89.25 141.40625 89.4375 141.441406 89.632812 141.476562 C 91.632812 141.804688 93.621094 141.839844 95.648438 141.84375 C 95.832031 141.84375 96.015625 141.84375 96.203125 141.84375 C 101.9375 141.84375 107.808594 140.949219 113.0625 138.5625 C 113.285156 138.46875 113.507812 138.375 113.738281 138.277344 C 116.8125 136.984375 119.722656 135.4375 122.4375 133.5 C 122.628906 133.363281 122.820312 133.226562 123.019531 133.085938 C 126.289062 130.691406 129.34375 127.914062 131.8125 124.6875 C 131.898438 124.578125 131.984375 124.464844 132.074219 124.351562 C 133.441406 122.601562 134.667969 120.816406 135.75 118.875 C 135.832031 118.730469 135.910156 118.589844 135.996094 118.441406 C 137.441406 115.867188 138.539062 113.226562 139.5 110.4375 C 139.574219 110.226562 139.574219 110.226562 139.652344 110.007812 C 141.902344 103.539062 142.535156 95.828125 141.375 89.0625 C 141.347656 88.898438 141.324219 88.730469 141.296875 88.5625 C 139.5 77.492188 133.433594 66.871094 124.5 60 C 124.398438 59.921875 124.300781 59.84375 124.195312 59.765625 C 120.9375 57.238281 117.382812 55.300781 113.625 53.625 C 113.480469 53.558594 113.339844 53.496094 113.191406 53.429688 C 107.933594 51.105469 102.070312 50.214844 96.363281 50.214844 C 95.875 50.214844 95.386719 50.210938 94.898438 50.207031 C 92.101562 50.199219 89.402344 50.457031 86.660156 51.046875 Z M 86.660156 51.046875 "/>
<path style=" stroke:none;fill-rule:nonzero;fill:rgb(87.450981%,74.901962%,43.137255%);fill-opacity:1;" d="M 99.5625 71.25 C 99.757812 71.316406 99.953125 71.386719 100.15625 71.457031 C 102.632812 72.355469 104.445312 73.546875 106.3125 75.375 C 106.539062 75.585938 106.539062 75.585938 106.769531 75.804688 C 107.730469 76.722656 108.484375 77.699219 109.210938 78.804688 C 109.855469 79.488281 110.507812 79.734375 111.375 80.0625 C 111.558594 80.132812 111.742188 80.207031 111.929688 80.28125 C 112.339844 80.441406 112.75 80.597656 113.160156 80.757812 C 123.121094 84.585938 132.679688 89.738281 137.4375 99.773438 C 137.734375 100.449219 137.941406 101.070312 138 101.8125 C 137.671875 102.105469 137.671875 102.105469 137.25 102.375 C 136.398438 102.257812 135.832031 101.707031 135.175781 101.191406 C 131.785156 98.589844 128.136719 96.53125 124.125 95.0625 C 123.996094 95.015625 123.867188 94.96875 123.738281 94.921875 C 119.828125 93.511719 115.765625 92.777344 111.691406 92.003906 C 111.527344 91.96875 111.359375 91.9375 111.1875 91.90625 C 110.871094 91.84375 110.554688 91.785156 110.238281 91.726562 C 109.167969 91.519531 109.167969 91.519531 108.75 91.3125 C 107.738281 91.277344 106.785156 91.355469 105.785156 91.515625 C 105.507812 91.5625 105.234375 91.601562 104.957031 91.644531 C 104.8125 91.667969 104.671875 91.691406 104.523438 91.714844 C 96.210938 92.996094 96.210938 92.996094 92.8125 90.75 C 91.195312 89.515625 89.890625 88.019531 89.25 86.0625 C 89.308594 85.511719 89.308594 85.511719 89.4375 85.125 C 90.085938 85.03125 90.085938 85.03125 90.75 84.9375 C 90.835938 85.117188 90.921875 85.292969 91.011719 85.480469 C 91.125 85.714844 91.242188 85.953125 91.359375 86.191406 C 91.414062 86.308594 91.472656 86.425781 91.53125 86.546875 C 92.414062 88.347656 93.6875 89.308594 95.578125 89.964844 C 98.0625 90.746094 100.671875 90.355469 103.195312 90 C 103.464844 89.964844 103.730469 89.925781 104 89.890625 C 104.644531 89.804688 105.292969 89.714844 105.9375 89.625 C 105.9375 89.121094 105.742188 88.949219 105.4375 88.550781 C 105.335938 88.410156 105.234375 88.273438 105.128906 88.128906 C 104.910156 87.839844 104.691406 87.546875 104.472656 87.257812 C 104.316406 87.050781 104.316406 87.050781 104.160156 86.839844 C 104.066406 86.710938 103.972656 86.585938 103.871094 86.457031 C 103.628906 85.933594 103.699219 85.664062 103.875 85.125 C 104.214844 84.71875 104.214844 84.71875 104.648438 84.316406 C 105.839844 83.175781 106.878906 81.984375 107.8125 80.625 C 107.683594 80.605469 107.550781 80.582031 107.417969 80.5625 C 106.804688 80.421875 106.269531 80.203125 105.691406 79.957031 C 105.492188 79.871094 105.289062 79.785156 105.085938 79.699219 C 104.855469 79.601562 104.855469 79.601562 104.625 79.5 C 104.582031 79.695312 104.539062 79.894531 104.496094 80.097656 C 104.277344 80.855469 103.933594 81.253906 103.3125 81.75 C 102.402344 82.25 101.53125 82.535156 100.5 82.3125 C 99.285156 81.824219 98.40625 81.160156 97.832031 79.972656 C 97.570312 79.117188 97.632812 78.324219 97.6875 77.4375 C 96.757812 77.4375 95.832031 77.4375 94.875 77.4375 C 94.875 76.878906 94.875 76.324219 94.875 75.75 C 98.683594 75.554688 102.105469 76.390625 105.597656 77.875 C 105.9375 78.023438 105.9375 78.023438 106.3125 78 C 103.925781 75.117188 100.867188 73.179688 97.125 72.5625 C 94.679688 72.414062 92.273438 72.667969 90.1875 74.0625 C 89.707031 74.496094 89.261719 74.941406 88.820312 75.414062 C 88.714844 75.523438 88.609375 75.636719 88.5 75.75 C 88.4375 75.75 88.375 75.75 88.3125 75.75 C 88.308594 75.457031 88.304688 75.164062 88.300781 74.871094 C 88.296875 74.707031 88.296875 74.542969 88.292969 74.375 C 88.328125 73.410156 88.328125 73.410156 88.5 72.9375 C 91.472656 70.539062 96.019531 69.9375 99.5625 71.25 Z M 99.5625 71.25 "/>
<path style=" stroke:none;fill-rule:nonzero;fill:rgb(17.254902%,18.039216%,19.215687%);fill-opacity:1;" d="M 97.875 103.6875 C 100.410156 103.6875 102.949219 103.6875 105.5625 103.6875 C 107.554688 107.230469 107.554688 107.230469 108.140625 108.480469 C 108.210938 108.628906 108.28125 108.777344 108.351562 108.929688 C 109.988281 112.488281 110.890625 116.304688 110.871094 120.222656 C 110.871094 120.554688 110.871094 120.554688 110.867188 120.890625 C 110.84375 122.703125 110.679688 124.425781 110.25 126.1875 C 110.21875 126.3125 110.191406 126.433594 110.160156 126.5625 C 109.597656 128.746094 108.632812 130.742188 107.625 132.75 C 107.5 132.75 107.378906 132.75 107.25 132.75 C 107.210938 132.5625 107.171875 132.378906 107.132812 132.1875 C 106.167969 127.835938 103.785156 124.621094 100.164062 122.105469 C 99.964844 121.96875 99.765625 121.828125 99.5625 121.6875 C 99.433594 121.609375 99.308594 121.53125 99.175781 121.453125 C 98.679688 121.007812 98.589844 120.605469 98.410156 119.96875 C 98.3125 119.625 98.3125 119.625 98.214844 119.273438 C 98.164062 119.09375 98.164062 119.09375 98.113281 118.910156 C 98.015625 118.550781 97.914062 118.191406 97.808594 117.828125 C 97.355469 116.210938 97.121094 114.96875 97.675781 113.34375 C 98.234375 111.699219 98.285156 110.15625 98.285156 108.433594 C 98.289062 108.226562 98.289062 108.019531 98.292969 107.804688 C 98.292969 107.597656 98.292969 107.390625 98.292969 107.175781 C 98.292969 106.992188 98.292969 106.808594 98.296875 106.621094 C 98.230469 105.632812 98.039062 104.660156 97.875 103.6875 Z M 97.875 103.6875 "/>
<path style=" stroke:none;fill-rule:nonzero;fill:rgb(18.039216%,18.82353%,19.215687%);fill-opacity:1;" d="M 109.914062 81.371094 C 110.171875 81.464844 110.171875 81.464844 110.4375 81.5625 C 110.5625 81.601562 110.6875 81.644531 110.816406 81.6875 C 117.421875 83.859375 123.898438 86.941406 129.1875 91.5 C 129.289062 91.589844 129.390625 91.675781 129.496094 91.765625 C 130.609375 92.734375 131.621094 93.742188 132.5625 94.875 C 132.777344 95.125 132.992188 95.375 133.207031 95.625 C 133.367188 95.8125 133.523438 95.996094 133.6875 96.1875 C 133.625 96.3125 133.5625 96.433594 133.5 96.5625 C 133.414062 96.464844 133.324219 96.371094 133.234375 96.273438 C 130.945312 93.863281 128.160156 92.125 125.25 90.5625 C 125.128906 90.496094 125.011719 90.429688 124.886719 90.363281 C 119.3125 87.351562 112.703125 85.90625 106.5 84.9375 C 107.144531 84.023438 107.84375 83.148438 108.574219 82.300781 C 108.726562 82.121094 108.878906 81.941406 109.039062 81.753906 C 109.5 81.375 109.5 81.375 109.914062 81.371094 Z M 109.914062 81.371094 "/>
<path style=" stroke:none;fill-rule:nonzero;fill:rgb(89.411765%,76.862746%,45.09804%);fill-opacity:1;" d="M 97.617188 57.890625 C 97.832031 58.023438 98.042969 58.164062 98.25 58.3125 C 98.417969 58.421875 98.582031 58.527344 98.753906 58.640625 C 99.476562 59.34375 99.992188 60.167969 100.3125 61.125 C 100.3125 62.113281 100.3125 63.105469 100.3125 64.125 C 97.09375 64.125 93.878906 64.125 90.5625 64.125 C 90.164062 62.929688 90.144531 61.425781 90.703125 60.28125 C 90.835938 60.058594 90.976562 59.839844 91.125 59.625 C 91.234375 59.457031 91.339844 59.292969 91.453125 59.121094 C 92.992188 57.539062 95.566406 56.886719 97.617188 57.890625 Z M 97.617188 57.890625 "/>
<path style=" stroke:none;fill-rule:nonzero;fill:rgb(18.431373%,18.82353%,19.215687%);fill-opacity:1;" d="M 106.3125 86.625 C 114.296875 87.148438 124.175781 90.253906 130.3125 95.625 C 130.125 95.71875 130.125 95.71875 129.9375 95.8125 C 129.5 95.609375 129.082031 95.394531 128.660156 95.167969 C 123.472656 92.503906 117.769531 91.410156 112.082031 90.347656 C 111.695312 90.273438 111.308594 90.199219 110.921875 90.125 C 110.519531 90.050781 110.117188 89.976562 109.714844 89.910156 C 108.757812 89.738281 108.269531 89.484375 107.648438 88.734375 C 107.511719 88.578125 107.378906 88.417969 107.238281 88.257812 C 106.863281 87.734375 106.582031 87.207031 106.3125 86.625 Z M 106.3125 86.625 "/>
<path style=" stroke:none;fill-rule:nonzero;fill:rgb(87.450981%,75.294119%,43.137255%);fill-opacity:1;" d="M 109.6875 59.625 C 109.875 59.75 110.058594 59.871094 110.25 60 C 110.101562 60.054688 109.957031 60.109375 109.804688 60.164062 C 107.953125 60.886719 106.757812 61.578125 105.914062 63.429688 C 105.5 64.707031 105.628906 66.042969 106.105469 67.289062 C 106.746094 68.523438 107.683594 69.367188 108.9375 69.9375 C 109.4375 70.089844 109.925781 70.203125 110.4375 70.3125 C 109.453125 70.96875 108.210938 70.785156 107.0625 70.6875 C 106.476562 70.527344 106.050781 70.292969 105.5625 69.9375 C 105.449219 69.863281 105.335938 69.792969 105.222656 69.714844 C 104.074219 68.878906 103.300781 67.597656 103.0625 66.195312 C 102.890625 64.5625 103.03125 63.027344 104.0625 61.6875 C 105.703125 59.898438 107.273438 59.390625 109.6875 59.625 Z M 109.6875 59.625 "/>
<path style=" stroke:none;fill-rule:nonzero;fill:rgb(87.843138%,75.686276%,44.313726%);fill-opacity:1;" d="M 89.25 65.625 C 93.332031 65.625 97.417969 65.625 101.625 65.625 C 101.625 66.183594 101.625 66.738281 101.625 67.3125 C 99.832031 67.3125 98.035156 67.3125 96.1875 67.3125 C 96.1875 67.929688 96.1875 68.550781 96.1875 69.1875 C 95.628906 69.1875 95.074219 69.1875 94.5 69.1875 C 94.5 68.570312 94.5 67.949219 94.5 67.3125 C 92.765625 67.3125 91.035156 67.3125 89.25 67.3125 C 89.25 66.753906 89.25 66.199219 89.25 65.625 Z M 89.25 65.625 "/>
<path style=" stroke:none;fill-rule:nonzero;fill:rgb(18.039216%,18.82353%,19.215687%);fill-opacity:1;" d="M 99.375 77.8125 C 100.628906 78.007812 101.765625 78.261719 102.9375 78.75 C 103.003906 79.332031 102.980469 79.617188 102.667969 80.121094 C 101.960938 80.585938 101.324219 80.585938 100.5 80.4375 C 99.84375 80.042969 99.617188 79.851562 99.375 79.125 C 99.367188 78.6875 99.367188 78.25 99.375 77.8125 Z M 99.375 77.8125 "/>
<path style=" stroke:none;fill-rule:nonzero;fill:rgb(55.686277%,56.470591%,57.254905%);fill-opacity:1;" d="M 185.25 183.5625 C 185.375 183.5625 185.496094 183.5625 185.625 183.5625 C 185.738281 183.738281 185.847656 183.910156 185.964844 184.089844 C 186.378906 184.695312 186.6875 184.902344 187.3125 185.25 C 187.3125 185.375 187.3125 185.496094 187.3125 185.625 C 187.136719 185.738281 186.964844 185.847656 186.785156 185.964844 C 186.179688 186.378906 185.972656 186.6875 185.625 187.3125 C 185.5 187.3125 185.378906 187.3125 185.25 187.3125 C 185.136719 187.136719 185.027344 186.964844 184.910156 186.785156 C 184.496094 186.179688 184.1875 185.972656 183.5625 185.625 C 183.5625 185.5 183.5625 185.378906 183.5625 185.25 C 183.738281 185.136719 183.910156 185.027344 184.089844 184.910156 C 184.695312 184.496094 184.902344 184.1875 185.25 183.5625 Z M 185.25 183.5625 "/>
<path style=" stroke:none;fill-rule:nonzero;fill:rgb(88.627452%,76.078433%,43.921569%);fill-opacity:1;" d="M 110.8125 63.9375 C 111.175781 64.136719 111.175781 64.136719 111.375 64.5 C 111.445312 65.140625 111.488281 65.601562 111.175781 66.175781 C 110.601562 66.488281 110.140625 66.445312 109.5 66.375 C 109.136719 66.175781 109.136719 66.175781 108.9375 65.8125 C 108.867188 65.171875 108.824219 64.710938 109.136719 64.136719 C 109.710938 63.824219 110.171875 63.867188 110.8125 63.9375 Z M 110.8125 63.9375 "/>
<path style=" stroke:none;fill-rule:nonzero;fill:rgb(87.058824%,76.078433%,44.705883%);fill-opacity:1;" d="M 110.625 82.875 C 111.28125 82.910156 111.28125 82.910156 111.9375 83.0625 C 112.3125 83.625 112.3125 83.625 112.253906 84.023438 C 112.125 84.375 112.125 84.375 111.9375 84.5625 C 111.179688 84.613281 110.894531 84.617188 110.25 84.1875 C 110.191406 83.71875 110.191406 83.71875 110.25 83.25 C 110.375 83.125 110.496094 83.003906 110.625 82.875 Z M 110.625 82.875 "/>
<path style=" stroke:none;fill-rule:nonzero;fill:rgb(20.392157%,20.784314%,20.784314%);fill-opacity:1;" d="M 129.75 92.25 C 130.566406 92.554688 131.046875 93.164062 131.613281 93.796875 C 131.710938 93.902344 131.804688 94.007812 131.90625 94.117188 C 132.519531 94.789062 133.109375 95.484375 133.6875 96.1875 C 133.625 96.3125 133.5625 96.433594 133.5 96.5625 C 133.402344 96.457031 133.304688 96.355469 133.203125 96.246094 C 132.253906 95.261719 131.285156 94.464844 130.140625 93.71875 C 130.011719 93.605469 129.882812 93.492188 129.75 93.375 C 129.75 93 129.75 92.625 129.75 92.25 Z M 129.75 92.25 "/>
<path style=" stroke:none;fill-rule:nonzero;fill:rgb(19.607843%,20.392157%,20.392157%);fill-opacity:1;" d="M 126.5625 93.375 C 127.996094 93.632812 129.367188 94.738281 130.3125 95.8125 C 129.507812 95.5625 128.777344 95.25 128.027344 94.863281 C 127.476562 94.578125 126.964844 94.320312 126.375 94.125 C 126.4375 93.878906 126.5 93.628906 126.5625 93.375 Z M 126.5625 93.375 "/>
<path style=" stroke:none;fill-rule:nonzero;fill:rgb(81.960785%,70.588237%,41.176471%);fill-opacity:1;" d="M 78.1875 77.0625 C 78.375 77.125 78.558594 77.1875 78.75 77.25 C 78.070312 77.929688 77.390625 78.609375 76.6875 79.3125 C 76.5625 79.25 76.441406 79.1875 76.3125 79.125 C 76.929688 78.445312 77.550781 77.765625 78.1875 77.0625 Z M 78.1875 77.0625 "/>
<path style=" stroke:none;fill-rule:nonzero;fill:rgb(27.843139%,27.058825%,23.921569%);fill-opacity:1;" d="M 128.0625 94.125 C 128.964844 94.601562 129.625 95.0625 130.3125 95.8125 C 129.378906 95.53125 128.546875 95.136719 127.6875 94.6875 C 127.8125 94.625 127.933594 94.5625 128.0625 94.5 C 128.0625 94.375 128.0625 94.253906 128.0625 94.125 Z M 128.0625 94.125 "/>
<path style=" stroke:none;fill-rule:nonzero;fill:rgb(28.235295%,28.235295%,27.058825%);fill-opacity:1;" d="M 131.4375 94.3125 C 132.203125 94.40625 132.5 94.78125 132.984375 95.355469 C 133.117188 95.511719 133.25 95.664062 133.386719 95.824219 C 133.484375 95.945312 133.585938 96.0625 133.6875 96.1875 C 133.625 96.3125 133.5625 96.433594 133.5 96.5625 C 133.382812 96.441406 133.265625 96.324219 133.144531 96.199219 C 132.992188 96.046875 132.835938 95.890625 132.679688 95.730469 C 132.527344 95.574219 132.375 95.421875 132.21875 95.261719 C 131.84375 94.867188 131.84375 94.867188 131.4375 94.6875 C 131.4375 94.5625 131.4375 94.441406 131.4375 94.3125 Z M 131.4375 94.3125 "/>
<path style=" stroke:none;fill-rule:nonzero;fill:rgb(25.882354%,25.490198%,24.313726%);fill-opacity:1;" d="M 104.625 77.4375 C 105.234375 77.378906 105.234375 77.378906 105.9375 77.4375 C 106.394531 77.90625 106.394531 77.90625 106.6875 78.375 C 106.414062 78.289062 106.140625 78.203125 105.867188 78.117188 C 105.714844 78.070312 105.5625 78.019531 105.40625 77.972656 C 105 77.8125 105 77.8125 104.625 77.4375 Z M 104.625 77.4375 "/>
</g>
</svg>
