<?xml version="1.0" encoding="UTF-8"?>
<svg version="1.1" xmlns="http://www.w3.org/2000/svg" width="192" height="192">
<path d="M0 0 C17.87397382 15.77961731 29.48748041 36.17946488 33 60 C34.70998439 87.91873822 30.07631466 114.07610877 11.04638672 135.625 C-5.24739639 153.53640705 -27.05672802 167.79632983 -51.9375 169.16113281 C-79.1174497 169.53381707 -79.1174497 169.53381707 -90 166 C-90.62342285 165.80664062 -91.2468457 165.61328125 -91.88916016 165.4140625 C-116.13484558 157.76312305 -135.50359238 141.01650096 -148 119 C-154.15837823 106.84728161 -158.2467629 93.64956921 -159 80 C-159.05285156 79.08476563 -159.10570312 78.16953125 -159.16015625 77.2265625 C-159.92614255 50.78338338 -150.60191583 25.78418239 -132.49609375 6.53173828 C-97.1226911 -29.684438 -38.77991906 -33.08884003 0 0 Z M-130.40625 11.97265625 C-148.6152054 33.2255786 -154.66352794 57.39335776 -153 85 C-150.78333251 108.02871231 -137.8208647 129.04679492 -120.58984375 143.94140625 C-100.71168915 159.74199067 -76.03215044 166.37603768 -50.88427734 163.78173828 C-32.65716424 161.20631555 -16.93325024 153.79521701 -3 142 C-2.39671875 141.54238281 -1.7934375 141.08476562 -1.171875 140.61328125 C14.90334197 128.1061615 24.88658416 105.84233261 27.61328125 86.03125 C30.45334633 60.04322971 23.95944486 35.96755677 7.6875 15.3125 C0.23100882 6.54386824 -8.04076842 -0.25539975 -18 -6 C-18.76570312 -6.45117188 -19.53140625 -6.90234375 -20.3203125 -7.3671875 C-56.81457555 -27.28439547 -102.44585097 -17.34464449 -130.40625 11.97265625 Z " fill="#D6BC75" transform="translate(159,23)"/>
<path d="M0 0 C-0.165 1.134375 -0.33 2.26875 -0.5 3.4375 C-0.97629693 7.97298415 -1.21222394 12.50463993 -1.3125 17.0625 C-1.34988281 18.37347656 -1.38726562 19.68445313 -1.42578125 21.03515625 C-0.77461977 34.70954735 4.95880177 47.5950797 10.25 60 C10.90730132 61.56466293 11.5635566 63.12976572 12.21875 64.6953125 C13.80054758 68.46869589 15.39616863 72.23593213 17 76 C17.09990101 71.10485037 16.70353845 66.92476913 16 62 C21.28 62 26.56 62 32 62 C28.7 57.71 25.4 53.42 22 49 C22.66 47.68 23.32 46.36 24 45 C28.36159319 46.55624921 30.66425207 49.94920988 33.375 53.5 C33.86178223 54.13292969 34.34856445 54.76585937 34.85009766 55.41796875 C47.29465671 71.80572865 52.55791239 88.47970434 51 109 C49.58266424 116.92088212 46.71693371 125.11155828 41 131 C38.875 131.796875 38.875 131.796875 37 132 C35.35221367 130.35221367 35.52018275 128.1978772 35.1875 125.9375 C33.98383512 119.02990079 31.97776722 113.97776722 27 109 C27.99 119.89 27.99 119.89 29 131 C17.12 131 5.24 131 -7 131 C-7.66 127.04 -8.32 123.08 -9 119 C-12.49577899 111.75874353 -15.64593781 107.37126518 -23 104 C-26.30041892 102.89986036 -28.90746152 102.81021941 -32.3828125 102.71875 C-33.63191406 102.68136719 -34.88101563 102.64398438 -36.16796875 102.60546875 C-38.81379655 102.53494817 -41.45962993 102.46463689 -44.10546875 102.39453125 C-45.35199219 102.35714844 -46.59851563 102.31976563 -47.8828125 102.28125 C-49.03152832 102.25095703 -50.18024414 102.22066406 -51.36376953 102.18945312 C-54 102 -54 102 -55 101 C-54.89321315 93.52296128 -53.08442904 86.22220794 -51.3125 79 C-50.9110376 77.35741211 -50.9110376 77.35741211 -50.50146484 75.68164062 C-43.37888562 47.15794318 -32.64710761 18.21309764 -6.25 2.27734375 C-2.23853211 0 -2.23853211 0 0 0 Z M-17 17 C-36.4108102 36.7099494 -46.05930685 69.12814879 -49 96 C-48.44650879 96.01458252 -47.89301758 96.02916504 -47.32275391 96.04418945 C-31.97151464 96.49626029 -20.10698436 96.89301564 -8.75 108.25 C-5.23537824 113.77297705 -3.27848744 119.60756278 -2 126 C6.25 126 14.5 126 23 126 C21.04241391 104.46655306 14.91752755 84.94753482 6.765625 65.0546875 C6.47828491 64.35260162 6.19094482 63.65051575 5.89489746 62.92715454 C4.45564186 59.41698337 3.00447344 55.9125586 1.53125 52.41650391 C-3.09826757 41.34212493 -6.34946761 30.82258543 -6.6875 18.75 C-6.72166016 17.89792969 -6.75582031 17.04585937 -6.79101562 16.16796875 C-6.87185306 14.11238825 -6.93762502 12.05622354 -7 10 C-10.38334508 10 -14.6194809 14.9096985 -17 17 Z M22 67 C22.01160156 68.0621875 22.02320312 69.124375 22.03515625 70.21875 C22.04545334 71.64582529 22.05448617 73.07291006 22.0625 74.5 C22.06725342 75.23814941 22.07200684 75.97629883 22.0769043 76.73681641 C22.07890973 80.36504223 21.99501377 83.79922136 21.3125 87.375 C20.88183935 92.37066358 21.77784846 96.49933801 24 101 C26.77867705 103.26916093 26.77867705 103.26916093 30 105 C34.92137886 109.56898383 37.60784952 114.79448022 40 121 C45.1081197 116.59299477 45.77511454 109.79157815 46.29296875 103.36328125 C46.60068014 89.10598672 42.97165792 79.10174583 36 67 C31.38 67 26.76 67 22 67 Z " fill="#D6BC75" transform="translate(79,46)"/>
<path d="M0 0 C5.51023338 3.57713511 10.15681948 7.6691367 14 13 C14 13.66 14 14.32 14 15 C14.59683594 15.12375 15.19367188 15.2475 15.80859375 15.375 C30.83469169 18.9473264 44.01209646 26.4382198 56 36 C56.70640625 36.56074219 57.4128125 37.12148437 58.140625 37.69921875 C62.11796188 41.25553123 64.78806059 45.578893 67.5 50.125 C68.04503174 51.0226709 68.04503174 51.0226709 68.60107422 51.93847656 C70.23464053 54.8295595 71.04005164 56.58279546 70.71875 59.9296875 C70.4815625 60.61289063 70.244375 61.29609375 70 62 C65.86847799 61.39242323 62.86517541 59.04617766 59.5 56.75 C48.72411719 49.6487647 37.48476778 45.98698413 25 43 C24.06800781 42.77183594 23.13601562 42.54367188 22.17578125 42.30859375 C14.9856411 40.69448065 8.18785461 40.7238639 0.87109375 41.3359375 C-8.56413915 42.09757678 -15.50688152 42.59908496 -23.375 36.5625 C-27.03587444 32.98878924 -27.03587444 32.98878924 -28 30 C-28 28.68 -28 27.36 -28 26 C-26.68 25.67 -25.36 25.34 -24 25 C-23.15364583 26.72526042 -22.30729167 28.45052083 -21.4609375 30.17578125 C-18.99848856 33.25055038 -15.96165046 34.74970693 -12.04638672 35.24926758 C-9.93891004 35.32986371 -7.85795283 35.31177151 -5.75 35.25 C-5.03070313 35.24484375 -4.31140625 35.2396875 -3.5703125 35.234375 C0.34446004 35.22857988 0.34446004 35.22857988 4 34 C3.484375 33.443125 2.96875 32.88625 2.4375 32.3125 C1 30 1 30 0.9375 27.625 C2.48706764 23.79665641 4.96186652 21.77956893 8 19 C7.01 18.34 6.02 17.68 5 17 C4.649375 17.639375 4.29875 18.27875 3.9375 18.9375 C2 21 2 21 -1.375 21.9375 C-5.45797334 22.00789609 -7.02911646 21.79612568 -10 19 C-10.8125 15.3125 -10.8125 15.3125 -11 12 C-12.98 12 -14.96 12 -17 12 C-17 10.35 -17 8.7 -17 7 C-10.2718373 6.77737697 -4.46008837 7.04978464 2 9 C0.75443908 8.18071114 -0.49666635 7.36984814 -1.75 6.5625 C-2.44609375 6.11003906 -3.1421875 5.65757813 -3.859375 5.19140625 C-8.2993343 2.72026102 -12.99277792 2.46751556 -18 3 C-22.03459198 4.16074571 -25.16638795 5.868113 -28 9 C-28.66 9 -29.32 9 -30 9 C-30.31732684 5.5094048 -30.46521283 3.64414084 -28.375 0.75 C-20.33183411 -5.17654329 -8.65282856 -4.37260376 0 0 Z M-6 13 C-5.67 13.99 -5.34 14.98 -5 16 C-3.68 16 -2.36 16 -1 16 C-1 15.34 -1 14.68 -1 14 C-2.65 13.67 -4.3 13.34 -6 13 Z M14 20 C12.30911778 21.97956942 10.64169528 23.97945196 9 26 C10.98 26 12.96 26 15 26 C15 24.02 15 22.04 15 20 C14.67 20 14.34 20 14 20 Z M20 23 C19.67 23.66 19.34 24.32 19 25 C16.9375 26.125 16.9375 26.125 15 27 C15.969375 27.20753906 16.93875 27.41507813 17.9375 27.62890625 C26.39649254 29.54095777 34.10809769 32.05894016 41.9453125 35.80102539 C43.60732242 36.58452625 45.30153907 37.29901425 47 38 C47.66 37.67 48.32 37.34 49 37 C42.90011509 32.82772945 36.68431811 29.19701853 30 26.0625 C29.35345459 25.75626709 28.70690918 25.45003418 28.04077148 25.13452148 C25.17571681 23.82145006 23.18947965 23 20 23 Z M9 31 C10.58252228 33.56350868 11.54168056 34.82174124 14.38842773 35.92895508 C15.31083252 36.12384521 16.2332373 36.31873535 17.18359375 36.51953125 C18.19357422 36.73673828 19.20355469 36.95394531 20.24414062 37.17773438 C21.29794922 37.38720703 22.35175781 37.59667969 23.4375 37.8125 C24.48744141 38.04130859 25.53738281 38.27011719 26.61914062 38.50585938 C32.82812469 39.94465251 32.82812469 39.94465251 39 39 C29.43974408 35.04133429 19.48279579 31 9 31 Z " fill="#D9BD72" transform="translate(110,48)"/>
<path d="M0 0 C2.58297781 2.18991597 4.48415844 3.96831688 6 7 C6.125 10.5625 6.125 10.5625 6 14 C5 15 5 15 3.05053711 15.11352539 C2.2178833 15.10828857 1.38522949 15.10305176 0.52734375 15.09765625 C-0.37177734 15.09443359 -1.27089844 15.09121094 -2.19726562 15.08789062 C-3.14279297 15.07951172 -4.08832031 15.07113281 -5.0625 15.0625 C-6.01189453 15.05798828 -6.96128906 15.05347656 -7.93945312 15.04882812 C-10.29303065 15.0370011 -12.64648477 15.02052025 -15 15 C-16.43304064 12.13391871 -16.30644155 10.18699217 -16 7 C-14.26177772 3.65231265 -12.90483578 1.56246548 -9.6875 -0.4375 C-6.06099111 -1.19653674 -3.58424608 -0.96006591 0 0 Z " fill="#DBBF75" transform="translate(100,19)"/>
<path d="M0 0 C-0.33 0.99 -0.66 1.98 -1 3 C-2.4540625 3.61875 -2.4540625 3.61875 -3.9375 4.25 C-7.29120758 5.77406009 -7.29120758 5.77406009 -8.5625 9.375 C-9.26640384 12.91227014 -9.26640384 12.91227014 -8 15.75 C-5.61448304 18.43370658 -3.28592216 19.61261064 0 21 C0 21.66 0 22.32 0 23 C-3.94076365 23.866968 -6.39665883 24.20884887 -10.25 22.875 C-13.4011776 20.72646982 -14.60999172 19.55224339 -16 16 C-16.63649848 12.17393693 -16.86264172 8.67558392 -15.05078125 5.15625 C-10.67201127 -0.47951704 -6.75137975 -1.57008831 0 0 Z " fill="#D4BA72" transform="translate(126,23)"/>
<path d="M0 0 C2.5625 2.1875 2.5625 2.1875 4 4 C1 6 1 6 -1.3125 5.75 C-4 5 -4 5 -6.8125 3.9375 C-13.75249396 1.89632531 -18.76883542 2.70114816 -25 6 C-26.75149165 7.58245275 -26.75149165 7.58245275 -28 9 C-28.66 9 -29.32 9 -30 9 C-30.31732684 5.5094048 -30.46521283 3.64414084 -28.375 0.75 C-20.30443827 -5.1967297 -8.70280561 -4.31529158 0 0 Z " fill="#DEC275" transform="translate(110,48)"/>
<path d="M0 0 C0.99 0.33 1.98 0.66 3 1 C3.433125 1.94875 3.86625 2.8975 4.3125 3.875 C6.42994875 7.79620139 7.88095756 8.40156562 12 10 C14.80075631 10.23293419 17.34099985 10.33264193 20.125 10.25 C20.82753906 10.24484375 21.53007813 10.2396875 22.25390625 10.234375 C25.62853006 10.18334099 28.7734506 10.0365081 32 9 C31.67 9.99 31.34 10.98 31 12 C24.565 12.495 24.565 12.495 18 13 C18 13.33 18 13.66 18 14 C24.6 14 31.2 14 38 14 C38 14.33 38 14.66 38 15 C35.50072231 15.33970765 33.00080405 15.67188032 30.5 16 C29.80390625 16.09539062 29.1078125 16.19078125 28.390625 16.2890625 C19.68280857 17.41785352 11.82917715 17.86892289 4.234375 12.828125 C1.37557955 10.57994606 -0.87217366 8.49626165 -2 5 C-2 3.68 -2 2.36 -2 1 C-1.34 0.67 -0.68 0.34 0 0 Z " fill="#BFA96E" transform="translate(84,73)"/>
<path d="M0 0 C8.91 0 17.82 0 27 0 C27 1.65 27 3.3 27 5 C23.37 5 19.74 5 16 5 C16 6.32 16 7.64 16 9 C14.35 9 12.7 9 11 9 C10.67 7.68 10.34 6.36 10 5 C6.7 5 3.4 5 0 5 C0 3.35 0 1.7 0 0 Z " fill="#D5BA78" transform="translate(82,35)"/>
<path d="M0 0 C3 0 3 0 5 1 C4.35335348 4.91580393 3.14751296 8.27885521 1.625 11.9375 C-1.10606033 18.85618618 -2.65230554 25.69177067 -4 33 C-4.33 33 -4.66 33 -5 33 C-5.1953125 30.94921875 -5.390625 28.8984375 -5.5859375 26.84765625 C-5.79089844 25.93306641 -5.79089844 25.93306641 -6 25 C-6.66 24.67 -7.32 24.34 -8 24 C-7.44100076 18.61264482 -6.09949531 14.16389809 -4 9.1875 C-3.72671875 8.52041016 -3.4534375 7.85332031 -3.171875 7.16601562 C-2.17478169 4.74415417 -1.17165746 2.34331492 0 0 Z " fill="#CFB674" transform="translate(11,51)"/>
<path d="M0 0 C8.79246214 0.47102476 16.70615203 3.24216834 25 6 C24.01 7.32 23.02 8.64 22 10 C22.99 10.33 23.98 10.66 25 11 C22.20867237 12.39566382 20.62394747 11.35162886 17.79272461 10.41088867 C17.07737549 10.17217041 16.36202637 9.93345215 15.625 9.6875 C5.88078485 6.59475697 -3.84228904 5.70379176 -14 5 C-14 4.67 -14 4.34 -14 4 C-12.92878906 3.93941406 -11.85757813 3.87882813 -10.75390625 3.81640625 C-9.35675609 3.73201463 -7.95962143 3.64736594 -6.5625 3.5625 C-5.50192383 3.50352539 -5.50192383 3.50352539 -4.41992188 3.44335938 C-0.91309581 3.52375562 -0.91309581 3.52375562 2 2 C1.34 1.34 0.68 0.68 0 0 Z " fill="#CCB271" transform="translate(108,1)"/>
<path d="M0 0 C4.62 0 9.24 0 14 0 C14 0.99 14 1.98 14 3 C16.97 3.495 16.97 3.495 20 4 C20 4.33 20 4.66 20 5 C15.38 5 10.76 5 6 5 C6 9.95 6 14.9 6 20 C5.01 20 4.02 20 3 20 C2.49685437 17.22970414 1.99736162 14.4588348 1.5 11.6875 C1.35691406 10.90181641 1.21382813 10.11613281 1.06640625 9.30664062 C0.93105469 8.54931641 0.79570313 7.79199219 0.65625 7.01171875 C0.53056641 6.31522217 0.40488281 5.61872559 0.27539062 4.90112305 C0 3 0 3 0 0 Z " fill="#DFC275" transform="translate(95,108)"/>
<path d="M0 0 C0.66 0.99 1.32 1.98 2 3 C1.3515625 5.6015625 1.3515625 5.6015625 0 9 C-0.57581528 10.50770008 -1.15131344 12.0155213 -1.7265625 13.5234375 C-2.35788698 15.14120648 -2.99072952 16.75838377 -3.625 18.375 C-3.94984375 19.20644531 -4.2746875 20.03789063 -4.609375 20.89453125 C-5.40492732 22.93020924 -6.20183369 24.96534584 -7 27 C-7.66 25.68 -8.32 24.36 -9 23 C-9.99 23.33 -10.98 23.66 -12 24 C-9.94415208 16.01104712 -7.14524184 8.15701912 -3 1 C-2.01 0.67 -1.02 0.34 0 0 Z " fill="#D5BB74" transform="translate(46,80)"/>
<path d="M0 0 C1.5631897 0.07069702 1.5631897 0.07069702 3.15795898 0.14282227 C4.28266602 0.19116211 5.40737305 0.23950195 6.56616211 0.28930664 C8.34216797 0.37341797 8.34216797 0.37341797 10.15405273 0.45922852 C11.34192383 0.51143555 12.52979492 0.56364258 13.75366211 0.61743164 C16.69986339 0.74758511 19.64576549 0.88256492 22.59155273 1.02172852 C22.59155273 2.01172852 22.59155273 3.00172852 22.59155273 4.02172852 C24.90155273 4.02172852 27.21155273 4.02172852 29.59155273 4.02172852 C29.59155273 4.35172852 29.59155273 4.68172852 29.59155273 5.02172852 C18.37155273 5.02172852 7.15155273 5.02172852 -4.40844727 5.02172852 C-3.16014268 0.02851016 -3.16014268 0.02851016 0 0 Z " fill="#DFC47E" transform="translate(77.408447265625,171.978271484375)"/>
<path d="M0 0 C3.70826651 -0.05837668 7.4164137 -0.09372277 11.125 -0.125 C12.69507813 -0.15013672 12.69507813 -0.15013672 14.296875 -0.17578125 C19.59269336 -0.20929909 24.0571059 -0.17213685 29 2 C29 2.66 29 3.32 29 4 C19.1 4 9.2 4 -1 4 C-0.67 2.68 -0.34 1.36 0 0 Z " fill="#E0C272" transform="translate(26,143)"/>
<path d="M0 0 C0.33 1.32 0.66 2.64 1 4 C1.226875 4.598125 1.45375 5.19625 1.6875 5.8125 C2.35457021 10.48199148 0.55984437 14.22609748 -2.125 17.9375 C-3.053125 18.9584375 -3.053125 18.9584375 -4 20 C-5.32 19.67 -6.64 19.34 -8 19 C-8.20674944 13.21101581 -7.59162079 8.57067277 -6 3 C-4 6 -4 6 -3 8 C-2.01 5.36 -1.02 2.72 0 0 Z " fill="#D6BA73" transform="translate(123,158)"/>
<path d="M0 0 C1.65 1.32 3.3 2.64 5 4 C3.90301833 9.69139902 2.45946923 14.74567937 0 20 C-0.33 20 -0.66 20 -1 20 C-1 18.35 -1 16.7 -1 15 C-1.66 15 -2.32 15 -3 15 C-3 15.66 -3 16.32 -3 17 C-3.66 17 -4.32 17 -5 17 C-4.80664062 16.35933594 -4.61328125 15.71867188 -4.4140625 15.05859375 C-2.9059252 10.04889015 -1.42282214 5.03460143 0 0 Z " fill="#C6AF6F" transform="translate(184,117)"/>
<path d="M0 0 C0.6875 2.0625 0.6875 2.0625 1 4 C-0.87144695 4.82065069 -2.74734336 5.6311584 -4.625 6.4375 C-6.19121094 7.11619141 -6.19121094 7.11619141 -7.7890625 7.80859375 C-10.88685251 8.95801705 -13.73210054 9.57311223 -17 10 C-15.35 8.35 -13.7 6.7 -12 5 C-12.33 4.34 -12.66 3.68 -13 3 C-11.40084119 2.30093058 -9.79544955 1.61610532 -8.1875 0.9375 C-7.29417969 0.55464844 -6.40085938 0.17179688 -5.48046875 -0.22265625 C-3 -1 -3 -1 0 0 Z " fill="#D1B772" transform="translate(138,179)"/>
<path d="M0 0 C0.495 0.7115625 0.495 0.7115625 1 1.4375 C0.01 1.4375 -0.98 1.4375 -2 1.4375 C-2.33 2.0975 -2.66 2.7575 -3 3.4375 C-2.34 3.4375 -1.68 3.4375 -1 3.4375 C-1.33 4.0975 -1.66 4.7575 -2 5.4375 C-2.55220215 5.08598877 -3.1044043 4.73447754 -3.67333984 4.37231445 C-11.26377931 0.01791238 -18.00065123 -0.33503134 -26.625 -0.375 C-27.91535156 -0.40013672 -29.20570312 -0.42527344 -30.53515625 -0.45117188 C-33.6904116 -0.50960253 -36.84429341 -0.54620712 -40 -0.5625 C-40 -0.8925 -40 -1.2225 -40 -1.5625 C-35.87431757 -1.73159163 -31.74839266 -1.89197509 -27.62207031 -2.04467773 C-26.22158959 -2.09768719 -24.82119312 -2.15297807 -23.42089844 -2.21069336 C-3.85673624 -3.01307519 -3.85673624 -3.01307519 0 0 Z " fill="#C5B47E" transform="translate(65,148.5625)"/>
<path d="M0 0 C0.66 0 1.32 0 2 0 C3.7265625 2.3359375 3.7265625 2.3359375 5.625 5.375 C6.25664062 6.37273437 6.88828125 7.37046875 7.5390625 8.3984375 C9 11 9 11 9 13 C7.35 13.33 5.7 13.66 4 14 C2.96387729 12.59447701 1.94655075 11.17508306 0.9375 9.75 C0.36902344 8.96109375 -0.19945312 8.1721875 -0.78515625 7.359375 C-2 5 -2 5 -1.74609375 2.765625 C-1 1 -1 1 0 0 Z " fill="#DDC077" transform="translate(14,138)"/>
<path d="M0 0 C3 1 3 1 4.5 3.9375 C4.995 4.948125 5.49 5.95875 6 7 C6.99 7.66 7.98 8.32 9 9 C9.6875 11.125 9.6875 11.125 10 13 C6.18692647 13 4.25171122 11.96457553 1 10 C-1.60691129 6.61101532 -2 5.37265387 -2 1 C-1.34 0.67 -0.68 0.34 0 0 Z " fill="#CBB371" transform="translate(84,73)"/>
<path d="M0 0 C3.82669043 3.42388092 5.72278474 6.00724943 7 11 C6.01 11.66 5.02 12.32 4 13 C2.86874978 11.92319498 1.74525081 10.83824365 0.625 9.75 C-0.00148438 9.14671875 -0.62796875 8.5434375 -1.2734375 7.921875 C-2.97310161 6.0299412 -3.98459866 4.31798691 -5 2 C-3.35 1.34 -1.7 0.68 0 0 Z " fill="#CFB56E" transform="translate(23,150)"/>
<path d="M0 0 C0.33 0 0.66 0 1 0 C1.65523219 7.04374605 -0.49294769 13.45787446 -3 20 C-3.66 20.66 -4.32 21.32 -5 22 C-4.979375 21.05125 -4.95875 20.1025 -4.9375 19.125 C-4.77448174 16.09333717 -4.77448174 16.09333717 -6 14 C-6.01953125 11.90625 -6.01953125 11.90625 -5.8125 9.5 C-5.75707031 8.7059375 -5.70164062 7.911875 -5.64453125 7.09375 C-5 5 -5 5 -3.01171875 3.90625 C-2.34785156 3.6071875 -1.68398437 3.308125 -1 3 C-0.67 2.01 -0.34 1.02 0 0 Z " fill="#D7BD7A" transform="translate(129,148)"/>
<path d="M0 0 C6.11842105 7.34210526 6.11842105 7.34210526 5.8125 11.625 C5 14 5 14 2 16 C-2.12376682 8.48520179 -2.12376682 8.48520179 -1.8203125 4.84375 C-1.25 2.9375 -1.25 2.9375 0 0 Z " fill="#D3B972" transform="translate(9,126)"/>
<path d="M0 0 C0.66 0 1.32 0 2 0 C2 0.66 2 1.32 2 2 C1.34 2 0.68 2 0 2 C0 1.34 0 0.68 0 0 Z M-9 1 C-5.14354879 0.77963136 -2.50776784 1.39644899 1 3 C0.67 4.32 0.34 5.64 0 7 C-0.804375 7.12375 -1.60875 7.2475 -2.4375 7.375 C-3.7059375 7.684375 -3.7059375 7.684375 -5 8 C-5.33 8.66 -5.66 9.32 -6 10 C-7.32 9.34 -8.64 8.68 -10 8 C-9.67 7.34 -9.34 6.68 -9 6 C-8.9603287 4.33380554 -8.95615553 2.66608987 -9 1 Z " fill="#E1C373" transform="translate(119,58)"/>
<path d="M0 0 C0 0.33 0 0.66 0 1 C-0.66386719 1.04898438 -1.32773438 1.09796875 -2.01171875 1.1484375 C-8.82510099 1.50766326 -8.82510099 1.50766326 -15 4 C-15.70381157 5.98723268 -16.3711811 7.98777953 -17 10 C-19.125 11.375 -19.125 11.375 -21 12 C-21.31732684 8.5094048 -21.46521283 6.64414084 -19.375 3.75 C-13.36551827 -0.67803917 -7.15674481 -0.22921958 0 0 Z " fill="#D6C07F" transform="translate(101,45)"/>
<path d="M0 0 C3.69459731 0.19970796 4.78742451 0.76444338 7.3125 3.5625 C8.1478125 4.7690625 8.1478125 4.7690625 9 6 C8.34 6 7.68 6 7 6 C7 6.66 7 7.32 7 8 C6.01 8.33 5.02 8.66 4 9 C1.5 6.6875 1.5 6.6875 -1 4 C-1 1 -1 1 0 0 Z " fill="#C8AF6B" transform="translate(112,52)"/>
<path d="M0 0 C3.375 1.5 3.375 1.5 6 3 C4.03617993 4.50559539 2.21736634 5.89131683 0 7 C-2.3828125 6.22265625 -2.3828125 6.22265625 -5.125 5.0625 C-6.03507813 4.68222656 -6.94515625 4.30195312 -7.8828125 3.91015625 C-8.58148438 3.60980469 -9.28015625 3.30945313 -10 3 C-6.44932117 0.11983562 -4.63563154 -0.55627578 0 0 Z " fill="#D6BA70" transform="translate(149,81)"/>
<path d="M0 0 C2.0625 1.4375 2.0625 1.4375 4 4 C4.0087899 6.31613837 3.67434173 8.45460755 3.296875 10.73828125 C2.91579856 13.64148203 3.34524243 16.16271719 4 19 C1.89149671 15.83724506 0.71169124 12.86528462 -0.625 9.3125 C-1.07101563 8.13300781 -1.51703125 6.95351562 -1.9765625 5.73828125 C-2.31429687 4.83464844 -2.65203125 3.93101563 -3 3 C-2.01 3 -1.02 3 0 3 C0 2.01 0 1.02 0 0 Z " fill="#CCB474" transform="translate(88,108)"/>
<path d="M0 0 C5.99725275 2.10714286 5.99725275 2.10714286 8 5 C7.6875 7.1875 7.6875 7.1875 7 9 C3.64404172 8.40072174 1.62198774 7.15377564 -1 5 C-0.67 3.35 -0.34 1.7 0 0 Z " fill="#E1C377" transform="translate(156,78)"/>
<path d="M0 0 C1.60379341 -0.05416188 3.20811406 -0.09286638 4.8125 -0.125 C5.70582031 -0.14820312 6.59914063 -0.17140625 7.51953125 -0.1953125 C10 0 10 0 13 2 C11 4 11 4 8.6875 4.265625 C7.800625 4.26046875 6.91375 4.2553125 6 4.25 C4.6696875 4.25773438 4.6696875 4.25773438 3.3125 4.265625 C1 4 1 4 -1 2 C-0.67 1.34 -0.34 0.68 0 0 Z " fill="#E2C274" transform="translate(98,1)"/>
<path d="M0 0 C2 1 2 1 3.125 4.0625 C3.41375 5.031875 3.7025 6.00125 4 7 C3.34 7 2.68 7 2 7 C1.67 8.98 1.34 10.96 1 13 C-1.17854707 9.7321794 -2.49760034 6.61941735 -4 3 C-3.01 2.67 -2.02 2.34 -1 2 C-0.67 1.34 -0.34 0.68 0 0 Z " fill="#C7AF6D" transform="translate(122,116)"/>
<path d="M0 0 C0.33 1.32 0.66 2.64 1 4 C1.309375 4.928125 1.309375 4.928125 1.625 5.875 C2.13117027 8.74329819 1.57908417 11.16892182 1 14 C0.566875 13.525625 0.13375 13.05125 -0.3125 12.5625 C-2.02309613 10.76313043 -2.02309613 10.76313043 -5 10 C-5.33 7.69 -5.66 5.38 -6 3 C-4 6 -4 6 -3 8 C-2.01 5.36 -1.02 2.72 0 0 Z " fill="#C5AA6B" transform="translate(123,158)"/>
<path d="M0 0 C3.27481575 0.97359387 4.76205109 1.69066641 6.875 4.4375 C8 7 8 7 7 10 C4 8.1875 4 8.1875 1 6 C1 5.01 1 4.02 1 3 C0.34 3 -0.32 3 -1 3 C-0.67 2.01 -0.34 1.02 0 0 Z " fill="#E0C172" transform="translate(63,149)"/>
<path d="M0 0 C2.125 0.375 2.125 0.375 4 1 C4.38218767 2.65614657 4.71395102 4.32457024 5 6 C4 7 4 7 1.4375 7.0625 C0.2309375 7.0315625 0.2309375 7.0315625 -1 7 C-1.625 4.625 -1.625 4.625 -2 2 C-1.34 1.34 -0.68 0.68 0 0 Z " fill="#D3BB78" transform="translate(123,31)"/>
<path d="M0 0 C1.32 0.66 2.64 1.32 4 2 C1.11593757 5.40843742 -0.3708265 6.86591384 -4.8125 7.8125 C-6.3903125 7.9053125 -6.3903125 7.9053125 -8 8 C-4.38671875 3.3125 -4.38671875 3.3125 -3 2 C-2.01 2 -1.02 2 0 2 C0 1.34 0 0.68 0 0 Z " fill="#CCB36B" transform="translate(120,66)"/>
<path d="M0 0 C-0.99 0.495 -0.99 0.495 -2 1 C-2 1.99 -2 2.98 -2 4 C-8.625 3.25 -8.625 3.25 -12 1 C-8.00439392 -1.83022097 -4.57262677 -0.76210446 0 0 Z " fill="#CBB26A" transform="translate(142,69)"/>
<path d="M0 0 C0.66 0 1.32 0 2 0 C1.32829194 3.8063457 0.27253436 7.35206816 -1 11 C-1.33 11 -1.66 11 -2 11 C-3.125 5.25 -3.125 5.25 -2 3 C-1.34 3 -0.68 3 0 3 C0 2.01 0 1.02 0 0 Z M-5 3 C-4.34 4.32 -3.68 5.64 -3 7 C-3.99 7.33 -4.98 7.66 -6 8 C-5.67 6.35 -5.34 4.7 -5 3 Z " fill="#C2AB70" transform="translate(40,96)"/>
<path d="M0 0 C3.3 0.33 6.6 0.66 10 1 C10 1.33 10 1.66 10 2 C8.865625 2.12375 7.73125 2.2475 6.5625 2.375 C4.7990625 2.684375 4.7990625 2.684375 3 3 C2.67 3.66 2.34 4.32 2 5 C0.68 5 -0.64 5 -2 5 C-1.34 3.35 -0.68 1.7 0 0 Z " fill="#CFB773" transform="translate(120,74)"/>
<path d="M0 0 C1.98 0.495 1.98 0.495 4 1 C4.33 2.32 4.66 3.64 5 5 C3.35 5.33 1.7 5.66 0 6 C-1.125 2.25 -1.125 2.25 0 0 Z " fill="#CEB97A" transform="translate(125,68)"/>
<path d="M0 0 C2.00720923 0.28674418 4.0085944 0.61866701 6 1 C5.67 1.99 5.34 2.98 5 4 C1.9375 5.1875 1.9375 5.1875 -1 6 C-1.042721 4.33388095 -1.04063832 2.66617115 -1 1 C-0.67 0.67 -0.34 0.34 0 0 Z " fill="#B29F69" transform="translate(120,22)"/>
<path d="M0 0 C0.33 0.66 0.66 1.32 1 2 C2.65 2 4.3 2 6 2 C6.33 3.32 6.66 4.64 7 6 C3.86248779 6 2.60242414 5.64820195 0 4 C-0.33 3.01 -0.66 2.02 -1 1 C-0.67 0.67 -0.34 0.34 0 0 Z " fill="#E2C470" transform="translate(87,80)"/>
<path d="M0 0 C0 1.98 0 3.96 0 6 C-0.99 6.33 -1.98 6.66 -3 7 C-3.33 5.35 -3.66 3.7 -4 2 C-1 0 -1 0 0 0 Z " fill="#E1C576" transform="translate(38,102)"/>
<path d="M0 0 C2.29013653 3.4352048 2.17842973 4.985331 2 9 C1.01 8.34 0.02 7.68 -1 7 C-0.67 4.69 -0.34 2.38 0 0 Z " fill="#E3C77B" transform="translate(4,73)"/>
<path d="M0 0 C2.475 0.99 2.475 0.99 5 2 C3.02 2.99 3.02 2.99 1 4 C0.67 2.68 0.34 1.36 0 0 Z M-1 3 C-0.34 3.33 0.32 3.66 1 4 C1 4.66 1 5.32 1 6 C-0.32 5.67 -1.64 5.34 -3 5 C-2.34 4.34 -1.68 3.68 -1 3 Z " fill="#BBA770" transform="translate(103,62)"/>
</svg>
