<?xml version="1.0" encoding="UTF-8"?>
<svg xmlns="http://www.w3.org/2000/svg" xmlns:xlink="http://www.w3.org/1999/xlink" width="1024px" height="1024px" viewBox="0 0 512 512" version="1.1">
<g id="surface1">
<path style=" stroke:none;fill-rule:nonzero;fill:rgb(16.470589%,17.647059%,19.215687%);fill-opacity:1;" d="M 0 0 C 168.960938 0 337.921875 0 512 0 C 512 168.960938 512 337.921875 512 512 C 343.039062 512 174.078125 512 0 512 C 0 343.039062 0 174.078125 0 0 Z M 0 0 "/>
<path style=" stroke:none;fill-rule:nonzero;fill:rgb(16.862746%,17.647059%,18.82353%);fill-opacity:1;" d="M 255.3125 128.84375 C 255.703125 128.84375 256.09375 128.84375 256.496094 128.847656 C 263.101562 128.871094 269.492188 129.332031 276 130.5 C 276.488281 130.582031 276.972656 130.660156 277.476562 130.742188 C 296.625 133.929688 314.820312 141.578125 330.5 153 C 330.789062 153.207031 331.074219 153.417969 331.371094 153.632812 C 335.699219 156.792969 339.648438 160.28125 343.5 164 C 343.839844 164.324219 344.175781 164.648438 344.523438 164.984375 C 348.996094 169.296875 353.21875 173.652344 356.890625 178.671875 C 357.484375 179.476562 358.089844 180.273438 358.699219 181.070312 C 365.023438 189.460938 369.984375 198.816406 374 208.5 C 374.234375 209.035156 374.464844 209.574219 374.703125 210.125 C 380.613281 224.414062 382.71875 239.78125 382.6875 255.125 C 382.6875 255.628906 382.6875 256.132812 382.6875 256.652344 C 382.667969 265.097656 382.136719 273.195312 380.5 281.5 C 380.410156 281.96875 380.324219 282.433594 380.234375 282.914062 C 376.792969 300.609375 368.777344 318.425781 357.5 332.5 C 357.167969 332.929688 356.835938 333.355469 356.492188 333.796875 C 354.449219 336.402344 352.300781 338.882812 350.066406 341.320312 C 349.152344 342.332031 348.277344 343.359375 347.40625 344.40625 C 342.316406 350.207031 336.230469 354.996094 330 359.5 C 329.691406 359.722656 329.386719 359.945312 329.070312 360.171875 C 321.046875 365.902344 312.25 370.492188 303.082031 374.074219 C 302.066406 374.472656 301.058594 374.886719 300.054688 375.304688 C 294.214844 377.671875 288.132812 379.101562 282 380.5 C 281.632812 380.585938 281.261719 380.671875 280.882812 380.761719 C 266.117188 384.132812 249.863281 384.070312 235 381.5 C 234.578125 381.429688 234.160156 381.359375 233.726562 381.289062 C 215.839844 378.277344 198.226562 371.117188 183.5 360.5 C 183.003906 360.144531 183.003906 360.144531 182.496094 359.777344 C 178.527344 356.917969 174.75 353.957031 171.183594 350.609375 C 170.167969 349.65625 169.128906 348.765625 168.0625 347.875 C 154 335.59375 144.371094 318.644531 137.433594 301.558594 C 137.066406 300.660156 136.683594 299.765625 136.296875 298.875 C 128.175781 279.359375 126.992188 255.660156 130.5 235 C 130.605469 234.359375 130.605469 234.359375 130.710938 233.707031 C 134.664062 210.050781 145.878906 187.785156 162.257812 170.335938 C 163.28125 169.234375 164.253906 168.117188 165.21875 166.96875 C 182.300781 147.375 208.28125 136.007812 233.1875 130.875 C 233.546875 130.800781 233.910156 130.722656 234.28125 130.644531 C 241.257812 129.28125 248.21875 128.808594 255.3125 128.84375 Z M 255.3125 128.84375 "/>
<path style=" stroke:none;fill-rule:nonzero;fill:rgb(16.862746%,18.039216%,19.215687%);fill-opacity:1;" d="M 225 199.5 C 224.964844 199.792969 224.929688 200.085938 224.890625 200.390625 C 223.914062 209.816406 224.3125 219.1875 226 228.5 C 226.117188 229.15625 226.117188 229.15625 226.234375 229.820312 C 228.359375 241.257812 232.738281 251.980469 237.414062 262.578125 C 247.867188 286.296875 256.960938 310.515625 262 336 C 262.121094 336.613281 262.246094 337.226562 262.371094 337.859375 C 262.738281 339.707031 263.089844 341.554688 263.4375 343.40625 C 263.546875 343.957031 263.652344 344.507812 263.765625 345.074219 C 264.546875 349.394531 264.5 352.945312 264.5 357.5 C 252.785156 357.5 241.070312 357.5 229 357.5 C 228.503906 354.035156 228.503906 354.035156 228 350.5 C 225.601562 340.363281 220.238281 331.253906 211.40625 325.453125 C 203.871094 320.84375 196.164062 318.878906 187.386719 318.792969 C 186.773438 318.785156 186.15625 318.773438 185.523438 318.761719 C 183.578125 318.734375 181.632812 318.710938 179.6875 318.6875 C 178.359375 318.667969 177.035156 318.648438 175.710938 318.628906 C 172.472656 318.582031 169.238281 318.539062 166 318.5 C 165.9375 316.125 166.121094 314.039062 166.660156 311.726562 C 166.800781 311.101562 166.945312 310.480469 167.09375 309.84375 C 167.25 309.175781 167.40625 308.511719 167.5625 307.84375 C 167.722656 307.148438 167.882812 306.453125 168.046875 305.761719 C 168.371094 304.347656 168.699219 302.9375 169.03125 301.527344 C 169.457031 299.691406 169.871094 297.851562 170.277344 296.011719 C 174.136719 278.664062 179.324219 261.070312 187 245 C 187.222656 244.53125 187.441406 244.066406 187.667969 243.582031 C 191.570312 235.390625 195.976562 227.710938 201.5 220.5 C 201.96875 219.886719 201.96875 219.886719 202.445312 219.265625 C 207.144531 213.246094 212.316406 208.054688 218.34375 203.375 C 218.617188 203.164062 218.890625 202.949219 219.171875 202.730469 C 223.394531 199.5 223.394531 199.5 225 199.5 Z M 225 199.5 "/>
<path style=" stroke:none;fill-rule:nonzero;fill:rgb(87.058824%,75.294119%,43.921569%);fill-opacity:1;" d="M 231.5 190.5 C 231.578125 192.714844 231.316406 194.605469 230.78125 196.75 C 229.59375 201.574219 229.378906 206.148438 229.375 211.09375 C 229.375 211.476562 229.375 211.859375 229.375 212.253906 C 229.382812 218.128906 229.660156 223.757812 231 229.5 C 231.097656 229.921875 231.191406 230.34375 231.292969 230.777344 C 231.972656 233.699219 232.703125 236.605469 233.5 239.5 C 233.601562 239.878906 233.703125 240.257812 233.808594 240.648438 C 234.894531 244.492188 236.417969 248.15625 237.9375 251.84375 C 238.226562 252.550781 238.515625 253.261719 238.804688 253.96875 C 240.886719 259.050781 243.015625 264.109375 245.148438 269.167969 C 247.347656 274.375 249.460938 279.613281 251.53125 284.875 C 251.667969 285.21875 251.804688 285.566406 251.945312 285.921875 C 253.519531 289.925781 255.054688 293.945312 256.5 298 C 258 295.460938 257.691406 292.773438 257.6875 289.90625 C 257.6875 289.324219 257.6875 288.742188 257.6875 288.144531 C 257.628906 283.351562 256.890625 279.066406 255.5 274.5 C 255.15625 273.308594 255.15625 273.308594 255 272.5 C 255.769531 271.730469 256.503906 271.917969 257.578125 271.898438 C 258.015625 271.886719 258.457031 271.878906 258.910156 271.867188 C 259.628906 271.855469 259.628906 271.855469 260.359375 271.84375 C 261.09375 271.828125 261.09375 271.828125 261.839844 271.808594 C 263.402344 271.777344 264.96875 271.75 266.53125 271.71875 C 267.589844 271.695312 268.648438 271.675781 269.703125 271.652344 C 272.300781 271.601562 274.902344 271.546875 277.5 271.5 C 272.863281 265.257812 272.863281 265.257812 268 259.1875 C 266.203125 257.023438 264.515625 254.871094 263 252.5 C 264.15625 251.25 264.15625 251.25 265.5 250 C 265.996094 250 266.488281 250 267 250 C 267.898438 251.011719 268.699219 252.011719 269.5 253.09375 C 269.996094 253.746094 270.488281 254.394531 270.984375 255.042969 C 271.238281 255.371094 271.492188 255.703125 271.75 256.042969 C 272.859375 257.457031 274.039062 258.804688 275.21875 260.15625 C 282.292969 268.386719 287.882812 277.707031 292.5 287.5 C 292.902344 288.347656 292.902344 288.347656 293.3125 289.210938 C 295.542969 294.152344 297.121094 299.261719 298.5 304.5 C 298.589844 304.839844 298.683594 305.183594 298.777344 305.535156 C 303.164062 322.8125 299.410156 341.480469 290.554688 356.617188 C 289.734375 357.9375 288.886719 359.222656 288 360.5 C 287.78125 360.835938 287.558594 361.171875 287.332031 361.519531 C 286.71875 362.375 286.71875 362.375 285.5 363.5 C 282.949219 363.449219 282.949219 363.449219 282 362.5 C 281.917969 361.761719 281.863281 361.015625 281.820312 360.273438 C 281.457031 354.753906 281.042969 349.988281 278.5 345 C 278.128906 344.25 278.128906 344.25 277.75 343.484375 C 274.695312 337.789062 270.28125 333.203125 265 329.5 C 265.152344 329.847656 265.304688 330.199219 265.460938 330.558594 C 266.023438 332.066406 266.332031 333.476562 266.609375 335.0625 C 266.714844 335.652344 266.820312 336.246094 266.929688 336.855469 C 267.035156 337.46875 267.140625 338.085938 267.25 338.71875 C 267.355469 339.316406 267.460938 339.914062 267.570312 340.53125 C 267.890625 342.351562 268.199219 344.175781 268.5 346 C 268.648438 346.839844 268.648438 346.839844 268.800781 347.699219 C 269.609375 352.632812 269.5 356.816406 269.5 362 C 254.648438 362 239.800781 362 224.5 362 C 224.335938 358.863281 224.171875 355.730469 224 352.5 C 221.355469 342.226562 216.332031 333.710938 207.046875 328.125 C 201.613281 325.261719 195.828125 323.480469 189.675781 323.398438 C 189.027344 323.386719 188.375 323.378906 187.703125 323.367188 C 187.003906 323.359375 186.300781 323.351562 185.597656 323.34375 C 184.875 323.332031 184.148438 323.320312 183.425781 323.308594 C 181.527344 323.28125 179.628906 323.257812 177.726562 323.234375 C 175.789062 323.207031 173.847656 323.179688 171.90625 323.152344 C 168.105469 323.101562 164.300781 323.050781 160.5 323 C 161.707031 313.222656 163.691406 303.726562 166.085938 294.175781 C 166.5625 292.242188 167.011719 290.300781 167.457031 288.363281 C 170.882812 273.507812 175.648438 258.863281 182 245 C 182.199219 244.5625 182.398438 244.125 182.601562 243.671875 C 187.929688 231.960938 194.414062 221.121094 203 211.5 C 203.234375 211.234375 203.46875 210.96875 203.710938 210.695312 C 206.464844 207.585938 209.253906 204.605469 212.5 202 C 212.972656 201.617188 213.441406 201.230469 213.929688 200.835938 C 226.835938 190.5 226.835938 190.5 231.5 190.5 Z M 221 201.46875 C 220.707031 201.671875 220.417969 201.875 220.117188 202.082031 C 217.386719 204.019531 214.945312 206.214844 212.5 208.5 C 211.71875 209.179688 210.9375 209.855469 210.15625 210.53125 C 208.078125 212.382812 206.253906 214.339844 204.5 216.5 C 204.125 216.960938 203.75 217.421875 203.367188 217.898438 C 187.222656 238.15625 178.578125 263.378906 172.09375 288.15625 C 171.972656 288.613281 171.855469 289.070312 171.730469 289.542969 C 169.78125 297.144531 168.144531 304.828125 166.5 312.5 C 166.402344 312.917969 166.300781 313.335938 166.199219 313.765625 C 165.941406 315.355469 165.96875 316.894531 166 318.5 C 166.335938 318.503906 166.671875 318.507812 167.015625 318.507812 C 170.535156 318.542969 174.058594 318.582031 177.578125 318.632812 C 178.886719 318.648438 180.199219 318.660156 181.507812 318.671875 C 183.402344 318.691406 185.296875 318.714844 187.191406 318.742188 C 187.769531 318.746094 188.34375 318.75 188.9375 318.753906 C 194.523438 318.851562 200.03125 319.757812 205.125 322.125 C 205.460938 322.277344 205.792969 322.429688 206.140625 322.585938 C 209 323.921875 211.546875 325.507812 214 327.5 C 214.414062 327.828125 214.828125 328.15625 215.257812 328.492188 C 224.082031 335.898438 227.761719 346.363281 229 357.5 C 240.714844 357.5 252.429688 357.5 264.5 357.5 C 264.5 352.460938 264.382812 348.234375 263.4375 343.40625 C 263.324219 342.8125 263.214844 342.21875 263.101562 341.605469 C 262.742188 339.734375 262.375 337.867188 262 336 C 261.878906 335.386719 261.753906 334.773438 261.628906 334.140625 C 261.257812 332.320312 260.882812 330.503906 260.5 328.6875 C 260.386719 328.148438 260.277344 327.613281 260.160156 327.058594 C 258.507812 319.398438 256.242188 311.921875 253.75 304.5 C 253.558594 303.925781 253.558594 303.925781 253.363281 303.34375 C 249.191406 290.914062 244.410156 278.78125 239.199219 266.757812 C 236.507812 260.550781 233.933594 254.308594 231.5 248 C 231.347656 247.613281 231.199219 247.226562 231.042969 246.828125 C 225.269531 231.941406 223.050781 215.367188 225 199.5 C 223.390625 199.5 222.277344 200.574219 221 201.46875 Z M 221 201.46875 "/>
<path style=" stroke:none;fill-rule:nonzero;fill:rgb(87.058824%,74.901962%,43.921569%);fill-opacity:1;" d="M 255.3125 128.84375 C 255.703125 128.84375 256.09375 128.84375 256.496094 128.847656 C 263.101562 128.871094 269.492188 129.332031 276 130.5 C 276.488281 130.582031 276.972656 130.660156 277.476562 130.742188 C 296.625 133.929688 314.820312 141.578125 330.5 153 C 330.789062 153.207031 331.074219 153.417969 331.371094 153.632812 C 335.699219 156.792969 339.648438 160.28125 343.5 164 C 343.839844 164.324219 344.175781 164.648438 344.523438 164.984375 C 348.996094 169.296875 353.21875 173.652344 356.890625 178.671875 C 357.484375 179.476562 358.089844 180.273438 358.699219 181.070312 C 365.023438 189.460938 369.984375 198.816406 374 208.5 C 374.234375 209.035156 374.464844 209.574219 374.703125 210.125 C 380.613281 224.414062 382.71875 239.78125 382.6875 255.125 C 382.6875 255.628906 382.6875 256.132812 382.6875 256.652344 C 382.667969 265.097656 382.136719 273.195312 380.5 281.5 C 380.410156 281.96875 380.324219 282.433594 380.234375 282.914062 C 376.792969 300.609375 368.777344 318.425781 357.5 332.5 C 357.167969 332.929688 356.835938 333.355469 356.492188 333.796875 C 354.449219 336.402344 352.300781 338.882812 350.066406 341.320312 C 349.152344 342.332031 348.277344 343.359375 347.40625 344.40625 C 342.316406 350.207031 336.230469 354.996094 330 359.5 C 329.691406 359.722656 329.386719 359.945312 329.070312 360.171875 C 321.046875 365.902344 312.25 370.492188 303.082031 374.074219 C 302.066406 374.472656 301.058594 374.886719 300.054688 375.304688 C 294.214844 377.671875 288.132812 379.101562 282 380.5 C 281.632812 380.585938 281.261719 380.671875 280.882812 380.761719 C 266.117188 384.132812 249.863281 384.070312 235 381.5 C 234.578125 381.429688 234.160156 381.359375 233.726562 381.289062 C 215.839844 378.277344 198.226562 371.117188 183.5 360.5 C 183.003906 360.144531 183.003906 360.144531 182.496094 359.777344 C 178.527344 356.917969 174.75 353.957031 171.183594 350.609375 C 170.167969 349.65625 169.128906 348.765625 168.0625 347.875 C 154 335.59375 144.371094 318.644531 137.433594 301.558594 C 137.066406 300.660156 136.683594 299.765625 136.296875 298.875 C 128.175781 279.359375 126.992188 255.660156 130.5 235 C 130.605469 234.359375 130.605469 234.359375 130.710938 233.707031 C 134.664062 210.050781 145.878906 187.785156 162.257812 170.335938 C 163.28125 169.234375 164.253906 168.117188 165.21875 166.96875 C 182.300781 147.375 208.28125 136.007812 233.1875 130.875 C 233.546875 130.800781 233.910156 130.722656 234.28125 130.644531 C 241.257812 129.28125 248.21875 128.808594 255.3125 128.84375 Z M 231.09375 136.125 C 230.332031 136.289062 230.332031 136.289062 229.554688 136.453125 C 207.351562 141.339844 187.351562 152.253906 171 168 C 170.714844 168.277344 170.425781 168.550781 170.132812 168.835938 C 157.320312 181.230469 148.265625 196.097656 141.5 212.5 C 141.285156 213.015625 141.070312 213.535156 140.851562 214.066406 C 131.578125 238.164062 131.640625 265.363281 138.5 290 C 138.648438 290.539062 138.796875 291.078125 138.949219 291.636719 C 144.183594 310.238281 154.671875 327.152344 168 341 C 168.414062 341.433594 168.414062 341.433594 168.835938 341.878906 C 172.941406 346.167969 177.222656 349.976562 182 353.5 C 182.285156 353.714844 182.570312 353.925781 182.867188 354.148438 C 187.238281 357.40625 191.769531 360.292969 196.5 363 C 197.34375 363.492188 197.34375 363.492188 198.203125 363.992188 C 210.378906 370.828125 223.769531 374.84375 237.5 377 C 238 377.089844 238.5 377.175781 239.019531 377.265625 C 244.359375 378.144531 249.660156 378.242188 255.0625 378.25 C 255.550781 378.25 256.042969 378.253906 256.546875 378.253906 C 271.835938 378.246094 287.488281 375.867188 301.5 369.5 C 302.09375 369.25 302.691406 369 303.304688 368.742188 C 311.503906 365.296875 319.257812 361.167969 326.5 356 C 327.011719 355.636719 327.523438 355.273438 328.050781 354.898438 C 336.773438 348.507812 344.917969 341.101562 351.5 332.5 C 351.730469 332.207031 351.960938 331.910156 352.195312 331.609375 C 355.84375 326.9375 359.117188 322.179688 362 317 C 362.214844 316.617188 362.433594 316.234375 362.652344 315.84375 C 366.507812 308.976562 369.4375 301.941406 372 294.5 C 372.199219 293.933594 372.199219 293.933594 372.402344 293.355469 C 378.40625 276.101562 380.09375 255.542969 377 237.5 C 376.929688 237.058594 376.859375 236.617188 376.789062 236.164062 C 372.003906 206.648438 355.820312 178.324219 332 160 C 331.734375 159.792969 331.464844 159.585938 331.191406 159.371094 C 322.5 152.640625 313.023438 147.464844 303 143 C 302.617188 142.828125 302.234375 142.65625 301.839844 142.480469 C 287.820312 136.277344 272.191406 133.90625 256.96875 133.90625 C 255.667969 133.90625 254.367188 133.898438 253.0625 133.886719 C 245.597656 133.863281 238.402344 134.554688 231.09375 136.125 Z M 231.09375 136.125 "/>
<path style=" stroke:none;fill-rule:nonzero;fill:rgb(87.450981%,74.901962%,43.137255%);fill-opacity:1;" d="M 265.5 190 C 266.023438 190.183594 266.546875 190.363281 267.085938 190.550781 C 273.6875 192.949219 278.523438 196.125 283.5 201 C 284.105469 201.566406 284.105469 201.566406 284.71875 202.144531 C 287.277344 204.589844 289.285156 207.195312 291.234375 210.148438 C 292.945312 211.972656 294.691406 212.625 297 213.5 C 297.488281 213.691406 297.976562 213.882812 298.480469 214.082031 C 299.574219 214.507812 300.667969 214.929688 301.765625 215.351562 C 328.324219 225.5625 353.808594 239.300781 366.5 266.0625 C 367.292969 267.863281 367.839844 269.519531 368 271.5 C 367.125 272.28125 367.125 272.28125 366 273 C 363.730469 272.6875 362.214844 271.21875 360.46875 269.84375 C 351.425781 262.90625 341.703125 257.414062 331 253.5 C 330.660156 253.375 330.316406 253.25 329.964844 253.121094 C 319.535156 249.359375 308.707031 247.40625 297.84375 245.339844 C 297.402344 245.253906 296.957031 245.167969 296.503906 245.082031 C 295.660156 244.921875 294.816406 244.761719 293.96875 244.601562 C 291.113281 244.054688 291.113281 244.054688 290 243.5 C 287.304688 243.402344 284.761719 243.609375 282.097656 244.046875 C 281.359375 244.160156 280.621094 244.277344 279.882812 244.390625 C 279.503906 244.449219 279.125 244.507812 278.734375 244.570312 C 256.566406 247.992188 256.566406 247.992188 247.5 242 C 243.191406 238.703125 239.703125 234.714844 238 229.5 C 238.15625 228.03125 238.15625 228.03125 238.5 227 C 240.234375 226.753906 240.234375 226.753906 242 226.5 C 242.230469 226.976562 242.457031 227.453125 242.695312 227.945312 C 243.003906 228.578125 243.316406 229.210938 243.625 229.84375 C 243.773438 230.15625 243.925781 230.46875 244.078125 230.792969 C 246.441406 235.589844 249.832031 238.15625 254.875 239.90625 C 261.496094 241.992188 268.460938 240.945312 275.1875 240 C 275.902344 239.902344 276.617188 239.808594 277.332031 239.710938 C 279.054688 239.480469 280.777344 239.242188 282.5 239 C 282.5 237.652344 281.980469 237.199219 281.171875 236.132812 C 280.898438 235.761719 280.625 235.394531 280.34375 235.011719 C 279.761719 234.234375 279.175781 233.460938 278.589844 232.691406 C 278.179688 232.136719 278.179688 232.136719 277.765625 231.570312 C 277.507812 231.230469 277.253906 230.894531 276.992188 230.546875 C 276.339844 229.160156 276.535156 228.4375 277 227 C 277.910156 225.914062 277.910156 225.914062 279.0625 224.84375 C 282.242188 221.800781 285.007812 218.628906 287.5 215 C 287.152344 214.945312 286.804688 214.886719 286.445312 214.828125 C 284.816406 214.457031 283.382812 213.878906 281.84375 213.21875 C 281.308594 212.992188 280.773438 212.765625 280.226562 212.53125 C 279.617188 212.265625 279.617188 212.265625 279 212 C 278.886719 212.527344 278.773438 213.050781 278.65625 213.59375 C 278.070312 215.613281 277.160156 216.671875 275.5 218 C 273.066406 219.332031 270.753906 220.09375 268 219.5 C 264.761719 218.191406 262.421875 216.429688 260.882812 213.261719 C 260.191406 210.980469 260.351562 208.867188 260.5 206.5 C 258.023438 206.5 255.550781 206.5 253 206.5 C 253 205.015625 253 203.53125 253 202 C 263.15625 201.476562 272.285156 203.710938 281.597656 207.664062 C 282.496094 208.058594 282.496094 208.058594 283.5 208 C 277.132812 200.3125 268.980469 195.148438 259 193.5 C 252.476562 193.105469 246.0625 193.777344 240.5 197.5 C 239.21875 198.652344 238.027344 199.839844 236.859375 201.101562 C 236.574219 201.398438 236.292969 201.695312 236 202 C 235.835938 202 235.671875 202 235.5 202 C 235.488281 201.21875 235.476562 200.4375 235.46875 199.65625 C 235.464844 199.222656 235.457031 198.785156 235.453125 198.335938 C 235.546875 195.757812 235.546875 195.757812 236 194.5 C 243.925781 188.101562 256.054688 186.5 265.5 190 Z M 265.5 190 "/>
<path style=" stroke:none;fill-rule:nonzero;fill:rgb(17.254902%,18.039216%,19.215687%);fill-opacity:1;" d="M 261 276.5 C 267.765625 276.5 274.53125 276.5 281.5 276.5 C 286.816406 285.949219 286.816406 285.949219 288.375 289.28125 C 288.5625 289.675781 288.746094 290.070312 288.9375 290.480469 C 293.304688 299.964844 295.707031 310.140625 295.65625 320.59375 C 295.652344 321.476562 295.652344 321.476562 295.648438 322.375 C 295.585938 327.207031 295.152344 331.804688 294 336.5 C 293.917969 336.828125 293.839844 337.160156 293.757812 337.5 C 292.265625 343.324219 289.683594 348.640625 287 354 C 286.671875 354 286.339844 354 286 354 C 285.894531 353.503906 285.792969 353.007812 285.6875 352.496094 C 283.117188 340.894531 276.757812 332.328125 267.101562 325.617188 C 266.574219 325.25 266.046875 324.878906 265.5 324.5 C 265.160156 324.292969 264.816406 324.085938 264.464844 323.875 C 263.148438 322.683594 262.910156 321.613281 262.429688 319.914062 C 262.167969 318.996094 262.167969 318.996094 261.902344 318.0625 C 261.773438 317.585938 261.773438 317.585938 261.640625 317.097656 C 261.378906 316.132812 261.101562 315.171875 260.824219 314.210938 C 259.617188 309.894531 258.992188 306.582031 260.46875 302.25 C 261.953125 297.863281 262.089844 293.746094 262.09375 289.15625 C 262.101562 288.601562 262.105469 288.046875 262.113281 287.476562 C 262.113281 286.925781 262.113281 286.375 262.117188 285.804688 C 262.117188 285.316406 262.121094 284.824219 262.121094 284.320312 C 261.945312 281.691406 261.433594 279.097656 261 276.5 Z M 261 276.5 "/>
<path style=" stroke:none;fill-rule:nonzero;fill:rgb(18.039216%,18.82353%,19.215687%);fill-opacity:1;" d="M 293.101562 216.992188 C 293.792969 217.242188 293.792969 217.242188 294.5 217.5 C 294.832031 217.609375 295.167969 217.71875 295.511719 217.828125 C 313.125 223.628906 330.394531 231.847656 344.5 244 C 344.773438 244.234375 345.046875 244.46875 345.328125 244.710938 C 348.292969 247.289062 350.996094 249.976562 353.5 253 C 354.070312 253.667969 354.644531 254.335938 355.21875 255 C 355.640625 255.496094 356.0625 255.988281 356.5 256.5 C 356.335938 256.828125 356.171875 257.160156 356 257.5 C 355.769531 257.246094 355.535156 256.988281 355.296875 256.726562 C 349.191406 250.300781 341.761719 245.667969 334 241.5 C 333.679688 241.324219 333.363281 241.148438 333.03125 240.96875 C 318.167969 232.941406 300.542969 229.082031 284 226.5 C 285.722656 224.058594 287.582031 221.730469 289.53125 219.46875 C 289.9375 218.988281 290.347656 218.507812 290.765625 218.015625 C 292 217 292 217 293.101562 216.992188 Z M 293.101562 216.992188 "/>
<path style=" stroke:none;fill-rule:nonzero;fill:rgb(89.411765%,76.862746%,45.09804%);fill-opacity:1;" d="M 260.3125 154.375 C 260.886719 154.730469 261.449219 155.105469 262 155.5 C 262.445312 155.789062 262.886719 156.078125 263.34375 156.375 C 265.269531 158.25 266.652344 160.453125 267.5 163 C 267.5 165.640625 267.5 168.28125 267.5 171 C 258.921875 171 250.339844 171 241.5 171 C 240.4375 167.8125 240.382812 163.808594 241.875 160.75 C 242.234375 160.15625 242.605469 159.570312 243 159 C 243.289062 158.554688 243.578125 158.113281 243.875 157.65625 C 247.980469 153.4375 254.847656 151.699219 260.3125 154.375 Z M 260.3125 154.375 "/>
<path style=" stroke:none;fill-rule:nonzero;fill:rgb(18.431373%,18.82353%,19.215687%);fill-opacity:1;" d="M 283.5 231 C 304.789062 232.398438 331.132812 240.675781 347.5 255 C 347.003906 255.246094 347.003906 255.246094 346.5 255.5 C 345.335938 254.960938 344.222656 254.390625 343.09375 253.78125 C 329.257812 246.675781 314.046875 243.761719 298.882812 240.921875 C 297.851562 240.730469 296.820312 240.535156 295.792969 240.335938 C 294.71875 240.136719 293.648438 239.941406 292.570312 239.765625 C 290.023438 239.304688 288.714844 238.625 287.0625 236.625 C 286.703125 236.203125 286.34375 235.785156 285.972656 235.351562 C 284.96875 233.957031 284.222656 232.554688 283.5 231 Z M 283.5 231 "/>
<path style=" stroke:none;fill-rule:nonzero;fill:rgb(87.450981%,75.294119%,43.137255%);fill-opacity:1;" d="M 292.5 159 C 292.996094 159.328125 293.488281 159.660156 294 160 C 293.609375 160.144531 293.214844 160.292969 292.8125 160.441406 C 287.878906 162.367188 284.683594 164.210938 282.4375 169.144531 C 281.335938 172.550781 281.679688 176.113281 282.945312 179.433594 C 284.65625 182.730469 287.160156 184.976562 290.5 186.5 C 291.832031 186.90625 293.136719 187.210938 294.5 187.5 C 291.871094 189.253906 288.558594 188.753906 285.5 188.5 C 283.9375 188.074219 282.800781 187.453125 281.5 186.5 C 281.199219 186.304688 280.898438 186.109375 280.589844 185.910156 C 277.535156 183.675781 275.472656 180.257812 274.832031 176.523438 C 274.375 172.164062 274.75 168.070312 277.5 164.5 C 281.878906 159.726562 286.058594 158.375 292.5 159 Z M 292.5 159 "/>
<path style=" stroke:none;fill-rule:nonzero;fill:rgb(87.843138%,75.686276%,44.313726%);fill-opacity:1;" d="M 238 175 C 248.890625 175 259.78125 175 271 175 C 271 176.484375 271 177.96875 271 179.5 C 266.214844 179.5 261.429688 179.5 256.5 179.5 C 256.5 181.148438 256.5 182.800781 256.5 184.5 C 255.015625 184.5 253.53125 184.5 252 184.5 C 252 182.851562 252 181.199219 252 179.5 C 247.378906 179.5 242.761719 179.5 238 179.5 C 238 178.015625 238 176.53125 238 175 Z M 238 175 "/>
<path style=" stroke:none;fill-rule:nonzero;fill:rgb(18.039216%,18.82353%,19.215687%);fill-opacity:1;" d="M 265 207.5 C 268.339844 208.023438 271.375 208.703125 274.5 210 C 274.671875 211.554688 274.617188 212.3125 273.78125 213.65625 C 271.894531 214.898438 270.199219 214.894531 268 214.5 C 266.25 213.441406 265.648438 212.941406 265 211 C 264.980469 209.832031 264.976562 208.667969 265 207.5 Z M 265 207.5 "/>
<path style=" stroke:none;fill-rule:nonzero;fill:rgb(55.686277%,56.470591%,57.254905%);fill-opacity:1;" d="M 494 489.5 C 494.328125 489.5 494.660156 489.5 495 489.5 C 495.300781 489.964844 495.597656 490.429688 495.90625 490.90625 C 497.015625 492.519531 497.828125 493.070312 499.5 494 C 499.5 494.328125 499.5 494.660156 499.5 495 C 499.035156 495.300781 498.570312 495.597656 498.09375 495.90625 C 496.480469 497.015625 495.929688 497.828125 495 499.5 C 494.671875 499.5 494.339844 499.5 494 499.5 C 493.699219 499.035156 493.402344 498.570312 493.09375 498.09375 C 491.984375 496.480469 491.171875 495.929688 489.5 495 C 489.5 494.671875 489.5 494.339844 489.5 494 C 489.964844 493.699219 490.429688 493.402344 490.90625 493.09375 C 492.519531 491.984375 493.070312 491.171875 494 489.5 Z M 494 489.5 "/>
<path style=" stroke:none;fill-rule:nonzero;fill:rgb(88.627452%,76.078433%,43.921569%);fill-opacity:1;" d="M 295.5 170.5 C 296.46875 171.03125 296.46875 171.03125 297 172 C 297.183594 173.703125 297.308594 174.941406 296.46875 176.46875 C 294.941406 177.308594 293.703125 177.183594 292 177 C 291.03125 176.46875 291.03125 176.46875 290.5 175.5 C 290.316406 173.796875 290.191406 172.558594 291.03125 171.03125 C 292.558594 170.191406 293.796875 170.316406 295.5 170.5 Z M 295.5 170.5 "/>
<path style=" stroke:none;fill-rule:nonzero;fill:rgb(87.058824%,76.078433%,44.705883%);fill-opacity:1;" d="M 295 221 C 296.75 221.09375 296.75 221.09375 298.5 221.5 C 299.5 223 299.5 223 299.34375 224.0625 C 299 225 299 225 298.5 225.5 C 296.484375 225.632812 295.71875 225.648438 294 224.5 C 293.84375 223.25 293.84375 223.25 294 222 C 294.328125 221.671875 294.660156 221.339844 295 221 Z M 295 221 "/>
<path style=" stroke:none;fill-rule:nonzero;fill:rgb(20.392157%,20.784314%,20.784314%);fill-opacity:1;" d="M 346 246 C 348.175781 246.8125 349.457031 248.4375 350.96875 250.125 C 351.226562 250.40625 351.480469 250.6875 351.746094 250.976562 C 353.382812 252.777344 354.953125 254.621094 356.5 256.5 C 356.335938 256.828125 356.171875 257.160156 356 257.5 C 355.738281 257.222656 355.476562 256.941406 355.210938 256.65625 C 352.679688 254.035156 350.09375 251.90625 347.046875 249.914062 C 346.699219 249.609375 346.355469 249.308594 346 249 C 346 248 346 247 346 246 Z M 346 246 "/>
<path style=" stroke:none;fill-rule:nonzero;fill:rgb(19.607843%,20.392157%,20.392157%);fill-opacity:1;" d="M 337.5 249 C 341.324219 249.683594 344.984375 252.636719 347.5 255.5 C 345.347656 254.835938 343.40625 254 341.40625 252.96875 C 339.933594 252.210938 338.570312 251.523438 337 251 C 337.164062 250.339844 337.328125 249.679688 337.5 249 Z M 337.5 249 "/>
<path style=" stroke:none;fill-rule:nonzero;fill:rgb(81.960785%,70.588237%,41.176471%);fill-opacity:1;" d="M 208.5 205.5 C 208.996094 205.664062 209.488281 205.828125 210 206 C 208.183594 207.816406 206.371094 209.628906 204.5 211.5 C 204.171875 211.335938 203.839844 211.171875 203.5 211 C 205.148438 209.183594 206.800781 207.371094 208.5 205.5 Z M 208.5 205.5 "/>
<path style=" stroke:none;fill-rule:nonzero;fill:rgb(27.843139%,27.058825%,23.921569%);fill-opacity:1;" d="M 341.5 251 C 343.90625 252.273438 345.664062 253.496094 347.5 255.5 C 345.015625 254.753906 342.789062 253.699219 340.5 252.5 C 340.828125 252.335938 341.160156 252.171875 341.5 252 C 341.5 251.671875 341.5 251.339844 341.5 251 Z M 341.5 251 "/>
<path style=" stroke:none;fill-rule:nonzero;fill:rgb(28.235295%,28.235295%,27.058825%);fill-opacity:1;" d="M 350.5 251.5 C 352.539062 251.753906 353.332031 252.75 354.625 254.28125 C 354.976562 254.695312 355.332031 255.109375 355.695312 255.53125 C 355.960938 255.851562 356.226562 256.171875 356.5 256.5 C 356.335938 256.828125 356.171875 257.160156 356 257.5 C 355.6875 257.179688 355.375 256.863281 355.050781 256.53125 C 354.640625 256.121094 354.234375 255.707031 353.8125 255.28125 C 353.40625 254.871094 353 254.457031 352.582031 254.03125 C 351.589844 252.984375 351.589844 252.984375 350.5 252.5 C 350.5 252.171875 350.5 251.839844 350.5 251.5 Z M 350.5 251.5 "/>
<path style=" stroke:none;fill-rule:nonzero;fill:rgb(25.882354%,25.490198%,24.313726%);fill-opacity:1;" d="M 279 206.5 C 280.625 206.34375 280.625 206.34375 282.5 206.5 C 283.71875 207.75 283.71875 207.75 284.5 209 C 283.769531 208.773438 283.039062 208.542969 282.3125 208.3125 C 281.90625 208.183594 281.5 208.058594 281.082031 207.925781 C 280 207.5 280 207.5 279 206.5 Z M 279 206.5 "/>
</g>
</svg>
