<?xml version="1.0" encoding="UTF-8"?>
<svg version="1.1" xmlns="http://www.w3.org/2000/svg" width="1024" height="1024">
<path d="M0 0 C337.92 0 675.84 0 1024 0 C1024 337.92 1024 675.84 1024 1024 C686.08 1024 348.16 1024 0 1024 C0 686.08 0 348.16 0 0 Z " fill="#2A2D31" transform="translate(0,0)"/>
<path d="M0 0 C0.78114166 0.00182281 1.56228333 0.00364563 2.36709595 0.00552368 C15.57657652 0.057095 28.35637351 0.97855717 41.375 3.3125 C42.34840332 3.47347168 43.32180664 3.63444336 44.32470703 3.80029297 C82.62864088 10.17509635 119.0135393 25.4700978 150.375 48.3125 C150.95088867 48.72999512 151.52677734 49.14749023 152.12011719 49.57763672 C160.77060327 55.89876003 168.67223086 62.87584153 176.375 70.3125 C177.05143555 70.9617041 177.72787109 71.6109082 178.42480469 72.27978516 C187.3688284 80.902503 195.80991628 89.62077186 203.15722656 99.65478516 C204.34233639 101.2680361 205.55753852 102.85904468 206.7734375 104.44921875 C219.41940128 121.23269562 229.34089915 139.9470924 237.375 159.3125 C237.84035156 160.385 238.30570313 161.4575 238.78515625 162.5625 C250.60394163 191.14039906 254.80972164 221.87158106 254.75 252.5625 C254.74978851 253.56940887 254.74957703 254.57631775 254.74935913 255.61373901 C254.71408468 272.50418301 253.65135973 288.70558725 250.375 305.3125 C250.19839844 306.24626465 250.02179688 307.1800293 249.83984375 308.14208984 C242.96181121 343.53211468 226.93008661 379.16103852 204.375 407.3125 C203.70984375 408.1684375 203.0446875 409.024375 202.359375 409.90625 C198.27629178 415.11459237 193.97407872 420.07441818 189.5078125 424.95703125 C187.68004283 426.97561204 185.93153806 429.03478353 184.1875 431.125 C174.0089712 442.72433031 161.8345788 452.30208285 149.375 461.3125 C148.76076172 461.7569043 148.14652344 462.20130859 147.51367188 462.65917969 C131.47250373 474.11338372 113.87393138 483.29451162 95.53759766 490.46289062 C93.50847186 491.26006355 91.49425465 492.08687803 89.48046875 492.921875 C77.80161764 497.6550413 65.63872058 500.51864866 53.375 503.3125 C52.63781738 503.48410645 51.90063477 503.65571289 51.14111328 503.83251953 C21.60619044 510.58107104 -10.89980924 510.45319643 -40.625 505.3125 C-41.46643555 505.17328125 -42.30787109 505.0340625 -43.17480469 504.890625 C-78.94475084 498.86621302 -114.17068918 484.54301119 -143.625 463.3125 C-144.62055908 462.59876221 -144.62055908 462.59876221 -145.63623047 461.87060547 C-153.56882416 456.14803201 -161.12338399 450.22777884 -168.2578125 443.52734375 C-170.28847153 441.62737069 -172.36341118 439.84003551 -174.5 438.0625 C-202.62732844 413.5014177 -221.88563619 379.60433868 -235.75830078 345.4296875 C-236.49416606 343.63210337 -237.25781055 341.8459307 -238.02734375 340.0625 C-254.27318579 301.03095619 -256.63832305 253.63669225 -249.625 212.3125 C-249.41617187 211.03342773 -249.41617187 211.03342773 -249.203125 209.72851562 C-241.29965949 162.4174929 -218.86540907 117.88561507 -186.10546875 82.98046875 C-184.06219384 80.78274156 -182.11351198 78.54908936 -180.1875 76.25 C-146.02240601 37.06538983 -94.06094255 14.33112673 -44.25 4.0625 C-43.52756104 3.91143799 -42.80512207 3.76037598 -42.06079102 3.60473633 C-28.10924551 0.87116464 -14.18604417 -0.06953103 0 0 Z " fill="#2B2D30" transform="translate(510.625,257.6875)"/>
<path d="M0 0 C-0.0721875 0.5878125 -0.144375 1.175625 -0.21875 1.78125 C-2.16855363 20.62935177 -1.37184643 39.37713678 2 58 C2.23348145 59.30904297 2.23348145 59.30904297 2.47167969 60.64453125 C6.71521335 83.51387432 15.47785152 104.95765639 24.82568359 126.15429688 C45.73359085 173.5952794 63.9216455 222.02837696 74 273 C74.24556641 274.22847656 74.49113281 275.45695312 74.74414062 276.72265625 C75.47391839 280.41583239 76.17916591 284.11279061 76.875 287.8125 C77.09043457 288.91376221 77.30586914 290.01502441 77.52783203 291.1496582 C79.09677799 299.78796009 79 306.88942972 79 316 C55.57 316 32.14 316 8 316 C7.01 309.07 7.01 309.07 6 302 C1.20555124 281.72684402 -9.52123627 263.51056049 -27.1875 251.90625 C-42.26075037 242.68971672 -57.66835948 238.75879629 -75.2265625 238.5859375 C-76.45539154 238.56657135 -77.68422058 238.5472052 -78.95028687 238.5272522 C-82.84178921 238.46788605 -86.73332184 238.42124348 -90.625 238.375 C-93.27735603 238.33678068 -95.92970018 238.2977267 -98.58203125 238.2578125 C-105.0545813 238.16222011 -111.52720406 238.0770491 -118 238 C-118.12691536 233.24668184 -117.75601181 229.07646137 -116.6796875 224.44921875 C-116.39480469 223.20664307 -116.10992187 221.96406738 -115.81640625 220.68383789 C-115.50288917 219.35165816 -115.18907999 218.01954713 -114.875 216.6875 C-114.55276601 215.29889033 -114.23115995 213.91013482 -113.91015625 212.52124023 C-113.25697053 209.69857976 -112.59979252 206.87688734 -111.94042969 204.05566406 C-111.08498218 200.38341983 -110.26044682 196.70486115 -109.4453125 193.0234375 C-101.72578381 158.32446732 -91.35198917 123.1437828 -76 91 C-75.5580127 90.06526855 -75.11602539 89.13053711 -74.66064453 88.16748047 C-66.86152795 71.7801993 -58.04955988 56.42518917 -47 42 C-46.06607422 40.77603516 -46.06607422 40.77603516 -45.11328125 39.52734375 C-35.7119422 27.49439256 -25.36529554 17.10939569 -13.3125 7.75 C-12.7654541 7.32509277 -12.2184082 6.90018555 -11.65478516 6.46240234 C-3.21383418 0 -3.21383418 0 0 0 Z " fill="#2B2E31" transform="translate(450,399)"/>
<path d="M0 0 C0.15332056 4.42629793 -0.36957982 8.20788062 -1.4375 12.5 C-3.81495838 22.14765721 -4.24222625 31.30008224 -4.25 41.1875 C-4.25067474 41.95354553 -4.25134949 42.71959106 -4.25204468 43.5088501 C-4.23558577 55.26051137 -3.67971534 66.51586647 -1 78 C-0.80712402 78.84224121 -0.61424805 79.68448242 -0.41552734 80.55224609 C0.94363869 86.39932507 2.40267352 92.2134702 4 98 C4.20383301 98.75756592 4.40766602 99.51513184 4.61767578 100.2956543 C6.78985992 107.98360636 9.83710072 115.311912 12.875 122.6875 C13.45404904 124.1034854 14.03281953 125.51958473 14.61132812 126.93579102 C18.77085133 137.09825274 23.02969366 147.21799142 27.3006897 157.33395386 C31.69370811 167.75180739 35.92243422 178.22916163 40.0625 188.75 C40.33449219 189.4402829 40.60648438 190.1305658 40.88671875 190.84176636 C44.03947685 198.85354467 47.11034283 206.88905317 50 215 C52.99777504 209.92471453 52.3818993 204.55028215 52.375 198.8125 C52.37556396 197.65024902 52.37612793 196.48799805 52.37670898 195.29052734 C52.255301 185.70128702 50.78108766 177.13626388 48 168 C47.30859375 165.6171875 47.30859375 165.6171875 47 164 C48.54230977 162.45769023 50.0040971 162.83752513 52.15258789 162.79467773 C53.03342545 162.77473251 53.914263 162.75478729 54.8217926 162.73423767 C56.25772011 162.70916893 56.25772011 162.70916893 57.72265625 162.68359375 C59.18547279 162.6524221 59.18547279 162.6524221 60.67784119 162.62062073 C63.8059863 162.55501588 66.93421822 162.49618972 70.0625 162.4375 C72.1777435 162.39432517 74.29297809 162.35071123 76.40820312 162.30664062 C81.60537587 162.19932345 86.80263577 162.0975778 92 162 C82.72423265 149.51291777 82.72423265 149.51291777 73 137.375 C69.40529297 133.04916611 66.03382862 128.74035722 63 124 C65.3125 121.5 65.3125 121.5 68 119 C68.99 119 69.98 119 71 119 C72.79447554 121.02181619 74.39710767 123.02120783 76 125.1875 C76.98857286 126.4887393 77.97951608 127.78818074 78.97265625 129.0859375 C79.47684082 129.74561523 79.98102539 130.40529297 80.50048828 131.08496094 C82.71556046 133.9138483 85.07643973 136.60563652 87.4375 139.3125 C101.58934412 155.77728456 112.76182776 174.41346734 122 194 C122.80244141 195.69189453 122.80244141 195.69189453 123.62109375 197.41796875 C128.08258117 207.30277074 131.24368834 217.52431821 134 228 C134.18224121 228.68336426 134.36448242 229.36672852 134.55224609 230.07080078 C143.324655 264.62798173 135.82353765 301.96267431 118.109375 332.23046875 C116.46974889 334.87169255 114.7701763 337.44501647 113 340 C112.55914063 340.67289063 112.11828125 341.34578125 111.6640625 342.0390625 C110.4375 343.75 110.4375 343.75 108 346 C102.90196078 345.90196078 102.90196078 345.90196078 101 344 C100.83274674 342.52022112 100.72396313 341.03374216 100.640625 339.546875 C99.91334809 328.50960498 99.08935357 318.97513299 94 309 C93.25943359 307.50146484 93.25943359 307.50146484 92.50390625 305.97265625 C86.39029849 294.58111373 77.55928602 285.40453637 67 278 C67.30486328 278.69875244 67.60972656 279.39750488 67.92382812 280.11743164 C69.04815489 283.12898475 69.66153585 285.95687898 70.21875 289.12109375 C70.42886719 290.30509766 70.63898438 291.48910156 70.85546875 292.70898438 C71.06816406 293.93939453 71.28085937 295.16980469 71.5 296.4375 C71.71269531 297.63310547 71.92539062 298.82871094 72.14453125 300.06054688 C72.78477893 303.70367399 73.39516186 307.35084264 74 311 C74.29777344 312.68246826 74.29777344 312.68246826 74.6015625 314.39892578 C76.21755118 324.26413835 76 332.62990733 76 343 C46.3 343 16.6 343 -14 343 C-14.33 336.73 -14.66 330.46 -15 324 C-20.28753917 303.45413352 -30.3323417 286.42162539 -48.91015625 275.25 C-59.77214197 269.52563335 -71.34317647 265.96225246 -83.64794922 265.79467773 C-84.94884491 265.77473251 -86.2497406 265.75478729 -87.59005737 265.73423767 C-88.9949329 265.71725841 -90.39980965 265.70037943 -91.8046875 265.68359375 C-93.25343384 265.66300003 -94.7021745 265.64200296 -96.15090942 265.62062073 C-99.94839858 265.56564953 -103.7459397 265.51613114 -107.54351807 265.46777344 C-111.42489195 265.41737522 -115.30619116 265.36178516 -119.1875 265.30664062 C-126.79160328 265.19936465 -134.39576901 265.09785295 -142 265 C-139.58917179 245.44795013 -135.61882832 226.45193714 -130.82861328 207.34863281 C-129.8719832 203.48265219 -128.97443852 199.60524008 -128.08496094 195.72338867 C-121.23211231 166.01531743 -111.70440791 136.72458327 -99 109 C-98.60312988 108.12408203 -98.20625977 107.24816406 -97.79736328 106.34570312 C-87.13818568 82.92172695 -74.17023415 61.24177489 -57 42 C-56.53029785 41.46858398 -56.0605957 40.93716797 -55.57666016 40.38964844 C-50.06962121 34.17474939 -44.48970327 28.21020583 -38 23 C-37.05769531 22.23171875 -36.11539063 21.4634375 -35.14453125 20.671875 C-9.32874321 0 -9.32874321 0 0 0 Z M-21 21.9375 C-21.58233398 22.34282959 -22.16466797 22.74815918 -22.76464844 23.16577148 C-28.23002904 27.04169962 -33.10915381 31.42758954 -38 36 C-39.56003824 37.35700196 -41.12247743 38.71124948 -42.6875 40.0625 C-46.84376968 43.76826492 -50.49379363 47.67788397 -54 52 C-54.74894531 52.92296875 -55.49789062 53.8459375 -56.26953125 54.796875 C-88.55228254 95.31020966 -105.84728417 145.75721799 -118.8125 195.3125 C-119.05186279 196.22692871 -119.29122559 197.14135742 -119.5378418 198.08349609 C-123.43492711 213.28618188 -126.70726543 228.65668998 -130 244 C-130.19875732 244.83644043 -130.39751465 245.67288086 -130.60229492 246.53466797 C-131.11427329 249.70836813 -131.06291052 252.79156369 -131 256 C-130.3295163 256.00586624 -129.65903259 256.01173248 -128.9682312 256.01777649 C-121.9263103 256.0822095 -114.88482556 256.16675163 -107.84326172 256.26245117 C-105.22287788 256.29550019 -102.60242628 256.32359292 -99.98193359 256.34643555 C-96.19339382 256.380352 -92.40546405 256.43268459 -88.6171875 256.48828125 C-87.46451385 256.49467117 -86.31184021 256.5010611 -85.12423706 256.50764465 C-73.95493936 256.70502518 -62.9379334 258.51727875 -52.75 263.25 C-52.0801709 263.55373535 -51.4103418 263.8574707 -50.72021484 264.17041016 C-45.00180174 266.84415094 -39.90995679 270.01850182 -35 274 C-34.17113281 274.65484375 -33.34226562 275.3096875 -32.48828125 275.984375 C-14.83486757 290.79918464 -7.47454367 311.72910696 -5 334 C18.43 334 41.86 334 66 334 C66 323.92175054 65.76376028 315.46977656 63.875 305.8125 C63.65199219 304.62414551 63.42898438 303.43579102 63.19921875 302.21142578 C62.48718415 298.46980196 61.74910846 294.73436884 61 291 C60.75411133 289.77297363 60.50822266 288.54594727 60.25488281 287.28173828 C59.51703535 283.64313754 58.76336109 280.00832918 58 276.375 C57.77554199 275.29968018 57.55108398 274.22436035 57.31982422 273.11645508 C54.01280739 257.80029596 49.48128177 242.84474193 44.5 228 C44.11649887 226.85363571 44.11649887 226.85363571 43.72525024 225.68411255 C35.38631084 200.83028285 25.81814648 176.56023162 15.39550781 152.51196289 C10.0174785 140.10291426 4.86668366 127.61969969 0 115 C-0.30228516 114.22640137 -0.60457031 113.45280273 -0.91601562 112.65576172 C-12.46281896 82.87960851 -16.89692619 49.73211328 -13 18 C-16.2169848 18 -18.44408897 20.15120867 -21 21.9375 Z " fill="#DEC070" transform="translate(463,381)"/>
<path d="M0 0 C0.78114166 0.00182281 1.56228333 0.00364563 2.36709595 0.00552368 C15.57657652 0.057095 28.35637351 0.97855717 41.375 3.3125 C42.34840332 3.47347168 43.32180664 3.63444336 44.32470703 3.80029297 C82.62864088 10.17509635 119.0135393 25.4700978 150.375 48.3125 C150.95088867 48.72999512 151.52677734 49.14749023 152.12011719 49.57763672 C160.77060327 55.89876003 168.67223086 62.87584153 176.375 70.3125 C177.05143555 70.9617041 177.72787109 71.6109082 178.42480469 72.27978516 C187.3688284 80.902503 195.80991628 89.62077186 203.15722656 99.65478516 C204.34233639 101.2680361 205.55753852 102.85904468 206.7734375 104.44921875 C219.41940128 121.23269562 229.34089915 139.9470924 237.375 159.3125 C237.84035156 160.385 238.30570313 161.4575 238.78515625 162.5625 C250.60394163 191.14039906 254.80972164 221.87158106 254.75 252.5625 C254.74978851 253.56940887 254.74957703 254.57631775 254.74935913 255.61373901 C254.71408468 272.50418301 253.65135973 288.70558725 250.375 305.3125 C250.19839844 306.24626465 250.02179688 307.1800293 249.83984375 308.14208984 C242.96181121 343.53211468 226.93008661 379.16103852 204.375 407.3125 C203.70984375 408.1684375 203.0446875 409.024375 202.359375 409.90625 C198.27629178 415.11459237 193.97407872 420.07441818 189.5078125 424.95703125 C187.68004283 426.97561204 185.93153806 429.03478353 184.1875 431.125 C174.0089712 442.72433031 161.8345788 452.30208285 149.375 461.3125 C148.76076172 461.7569043 148.14652344 462.20130859 147.51367188 462.65917969 C131.47250373 474.11338372 113.87393138 483.29451162 95.53759766 490.46289062 C93.50847186 491.26006355 91.49425465 492.08687803 89.48046875 492.921875 C77.80161764 497.6550413 65.63872058 500.51864866 53.375 503.3125 C52.63781738 503.48410645 51.90063477 503.65571289 51.14111328 503.83251953 C21.60619044 510.58107104 -10.89980924 510.45319643 -40.625 505.3125 C-41.46643555 505.17328125 -42.30787109 505.0340625 -43.17480469 504.890625 C-78.94475084 498.86621302 -114.17068918 484.54301119 -143.625 463.3125 C-144.62055908 462.59876221 -144.62055908 462.59876221 -145.63623047 461.87060547 C-153.56882416 456.14803201 -161.12338399 450.22777884 -168.2578125 443.52734375 C-170.28847153 441.62737069 -172.36341118 439.84003551 -174.5 438.0625 C-202.62732844 413.5014177 -221.88563619 379.60433868 -235.75830078 345.4296875 C-236.49416606 343.63210337 -237.25781055 341.8459307 -238.02734375 340.0625 C-254.27318579 301.03095619 -256.63832305 253.63669225 -249.625 212.3125 C-249.41617187 211.03342773 -249.41617187 211.03342773 -249.203125 209.72851562 C-241.29965949 162.4174929 -218.86540907 117.88561507 -186.10546875 82.98046875 C-184.06219384 80.78274156 -182.11351198 78.54908936 -180.1875 76.25 C-146.02240601 37.06538983 -94.06094255 14.33112673 -44.25 4.0625 C-43.52756104 3.91143799 -42.80512207 3.76037598 -42.06079102 3.60473633 C-28.10924551 0.87116464 -14.18604417 -0.06953103 0 0 Z M-48.4375 14.5625 C-49.96213867 14.88891479 -49.96213867 14.88891479 -51.51757812 15.22192383 C-95.91879117 24.99448938 -135.92052522 46.8241817 -168.625 78.3125 C-169.19782715 78.86341309 -169.7706543 79.41432617 -170.36083984 79.98193359 C-195.9860203 104.77625167 -214.09308219 134.50732673 -227.625 167.3125 C-228.05425781 168.34632813 -228.48351562 169.38015625 -228.92578125 170.4453125 C-247.46663885 218.63946352 -247.3434544 273.03544248 -233.625 322.3125 C-233.3273877 323.39176758 -233.02977539 324.47103516 -232.72314453 325.58300781 C-222.25408504 362.78753372 -201.28137192 396.61850829 -174.625 424.3125 C-173.79693848 425.18140869 -173.79693848 425.18140869 -172.95214844 426.06787109 C-164.74380703 434.64889276 -156.1772315 442.26388834 -146.625 449.3125 C-146.05281738 449.74014648 -145.48063477 450.16779297 -144.89111328 450.60839844 C-136.14973209 457.12313161 -127.08349875 462.89942842 -117.625 468.3125 C-115.94083984 469.29669922 -115.94083984 469.29669922 -114.22265625 470.30078125 C-89.86623644 483.9721575 -63.08363235 492.00376825 -35.625 496.3125 C-34.6232373 496.48910156 -33.62147461 496.66570312 -32.58935547 496.84765625 C-21.9098765 498.60050948 -11.30329735 498.79494886 -0.5 498.8125 C0.4794458 498.81517883 1.4588916 498.81785767 2.46801758 498.82061768 C33.04834662 498.802638 64.35338516 494.04959765 92.375 481.3125 C93.56609375 480.81234375 94.7571875 480.3121875 95.984375 479.796875 C112.38290144 472.90587355 127.8891703 464.65046078 142.375 454.3125 C143.39851563 453.58417969 144.42203125 452.85585938 145.4765625 452.10546875 C162.92294912 439.33139939 179.21482448 424.51489348 192.375 407.3125 C192.83471191 406.72388184 193.29442383 406.13526367 193.76806641 405.52880859 C201.06269828 396.18456308 207.60787939 386.66879662 213.375 376.3125 C213.8066748 375.54873047 214.23834961 374.78496094 214.68310547 373.99804688 C222.39100239 360.26228453 228.25098088 346.1924352 233.375 331.3125 C233.77307861 330.17772217 233.77307861 330.17772217 234.17919922 329.02001953 C246.18404982 294.51316673 249.55904039 253.40029405 243.375 217.3125 C243.23497559 216.43029785 243.09495117 215.5480957 242.95068359 214.63916016 C233.38214337 155.60832163 201.01506227 98.95870175 153.375 62.3125 C152.84100586 61.89677734 152.30701172 61.48105469 151.75683594 61.05273438 C134.37726219 47.59179085 115.42054103 37.24244507 95.375 28.3125 C94.6104248 27.96848145 93.84584961 27.62446289 93.05810547 27.27001953 C65.01483994 14.86492382 33.75840417 10.12435807 3.3137207 10.12719727 C0.70962979 10.12501852 -1.89403085 10.10681909 -4.49804688 10.08789062 C-19.42628733 10.03643131 -33.81943939 11.41859829 -48.4375 14.5625 Z " fill="#DEBF70" transform="translate(510.625,257.6875)"/>
<path d="M0 0 C1.04542969 0.36351562 2.09085938 0.72703125 3.16796875 1.1015625 C16.3732812 5.90067957 26.04340147 12.24826975 36 22 C37.20849609 23.13308594 37.20849609 23.13308594 38.44140625 24.2890625 C43.55557984 29.18088071 47.57401454 34.38912921 51.46875 40.30078125 C54.88821234 43.94715235 58.38052874 45.25357308 63 47 C63.97791504 47.38341553 64.95583008 47.76683105 65.96337891 48.16186523 C68.14917374 49.01538356 70.3375417 49.86233371 72.52807617 50.70361328 C125.6453156 71.12570036 176.62080437 98.60325792 202 152.125 C203.5820358 155.72943208 204.6787409 159.03780448 205 163 C203.25 164.5625 203.25 164.5625 201 166 C196.45974837 165.37637989 193.42856862 162.43954574 189.9375 159.6875 C171.85419792 145.81526317 152.40467377 134.82826719 131 127 C130.31744141 126.75008301 129.63488281 126.50016602 128.93164062 126.24267578 C108.07303017 118.71888148 86.41416892 114.81275119 64.68920898 110.67822266 C63.80310944 110.50870087 62.91700989 110.33917908 62.00405884 110.16452026 C60.31695952 109.84215719 58.62937269 109.52233257 56.94125366 109.20535278 C51.22356735 108.11178368 51.22356735 108.11178368 49 107 C43.60731156 106.80598194 38.52119496 107.22040544 33.1953125 108.09375 C31.71845718 108.32300176 30.24148322 108.55149022 28.7644043 108.77929688 C28.00574066 108.89781006 27.24707703 109.01632324 26.46542358 109.13842773 C-17.86933568 115.98770898 -17.86933568 115.98770898 -36 104 C-44.61815288 97.40813902 -51.59058882 89.42878714 -55 79 C-54.6875 76.0625 -54.6875 76.0625 -54 74 C-50.535 73.505 -50.535 73.505 -47 73 C-46.54109375 73.95261719 -46.0821875 74.90523438 -45.609375 75.88671875 C-44.98991026 77.15380572 -44.37010019 78.4207239 -43.75 79.6875 C-43.44964844 80.31333984 -43.14929688 80.93917969 -42.83984375 81.58398438 C-38.11829187 91.17777595 -31.33540849 96.31417726 -21.25 99.8125 C-8.00884558 103.98194748 5.91845929 101.8879704 19.375 100 C20.80457323 99.80644579 22.23426069 99.61373339 23.6640625 99.421875 C27.11073983 98.95756476 30.55575377 98.48205345 34 98 C34 95.30239164 32.96408223 94.39900993 31.33984375 92.26171875 C30.79392578 91.52373047 30.24800781 90.78574219 29.68554688 90.02539062 C28.52438581 88.47241879 27.35514132 86.92545684 26.17773438 85.38476562 C25.36079102 84.27198242 25.36079102 84.27198242 24.52734375 83.13671875 C24.01937256 82.46342529 23.51140137 81.79013184 22.98803711 81.09643555 C21.68050838 78.32209672 22.06682004 76.87482012 23 74 C24.8203125 71.82421875 24.8203125 71.82421875 27.125 69.6875 C33.48616612 63.59895529 39.01197876 57.25530362 44 50 C43.30519531 49.88785156 42.61039063 49.77570313 41.89453125 49.66015625 C38.62967036 48.91553885 35.76399795 47.75599912 32.6875 46.4375 C31.61886719 45.98246094 30.55023437 45.52742188 29.44921875 45.05859375 C28.23685547 44.53458984 28.23685547 44.53458984 27 44 C26.773125 45.051875 26.54625 46.10375 26.3125 47.1875 C25.13824919 51.22398715 23.31823406 53.34541275 20 56 C15.13558809 58.66165934 10.50945668 60.18482939 5 59 C-1.47692841 56.38546009 -6.15746748 52.858023 -9.23828125 46.5234375 C-10.61601895 41.95923978 -10.29949268 37.73198432 -10 33 C-14.95 33 -19.9 33 -25 33 C-25 30.03 -25 27.06 -25 24 C-4.68585357 22.95227898 13.56977913 27.42004319 32.19433594 35.32910156 C33.99141699 36.11609612 33.99141699 36.11609612 36 36 C23.26941256 20.62558853 6.96408026 10.29304417 -13 7 C-26.04905682 6.20822526 -38.87513386 7.55322479 -50 15 C-52.5614303 17.30219188 -54.94262417 19.68335433 -57.28515625 22.20703125 C-57.85105469 22.79871094 -58.41695313 23.39039063 -59 24 C-59.33 24 -59.66 24 -60 24 C-60.02730408 22.43759968 -60.04653226 20.8750573 -60.0625 19.3125 C-60.07410156 18.44238281 -60.08570313 17.57226562 -60.09765625 16.67578125 C-59.90938089 11.51703639 -59.90938089 11.51703639 -59 9 C-43.15203633 -3.79752855 -18.89169155 -6.9969228 0 0 Z " fill="#DFBF6E" transform="translate(531,380)"/>
<path d="M0 0 C13.53 0 27.06 0 41 0 C51.63127943 18.90005233 51.63127943 18.90005233 54.75 25.5625 C55.12141113 26.35277588 55.49282227 27.14305176 55.87548828 27.95727539 C64.61017724 46.92953924 69.41734497 67.28384338 69.3125 88.1875 C69.30512817 89.94960815 69.30512817 89.94960815 69.29760742 91.74731445 C69.16854689 101.41229376 68.30147972 110.61124263 66 120 C65.83902832 120.65935547 65.67805664 121.31871094 65.51220703 121.99804688 C62.53051507 133.64984602 57.37043265 144.28371334 52 155 C51.34 155 50.68 155 50 155 C49.79246094 154.00742187 49.58492187 153.01484375 49.37109375 151.9921875 C44.23235464 128.79165748 31.51538841 111.65444361 12.20703125 98.234375 C11.14871094 97.49703125 10.09039063 96.7596875 9 96 C8.31800537 95.58621094 7.63601074 95.17242188 6.93334961 94.74609375 C4.30000597 92.36780435 3.81909841 90.22702238 2.859375 86.828125 C2.33730469 84.99507812 2.33730469 84.99507812 1.8046875 83.125 C1.54510254 82.16980469 1.54510254 82.16980469 1.28027344 81.1953125 C0.75431762 79.26583924 0.2014704 77.3437624 -0.3515625 75.421875 C-2.76333962 66.79025161 -4.01774876 60.16592519 -1.0625 51.5 C1.90692198 42.73009424 2.18225188 34.49146808 2.1875 25.3125 C2.19974609 24.20455078 2.21199219 23.09660156 2.22460938 21.95507812 C2.22654297 20.85228516 2.22847656 19.74949219 2.23046875 18.61328125 C2.23457764 17.63141846 2.23868652 16.64955566 2.24291992 15.63793945 C1.89206981 10.38365043 0.8657234 5.19434037 0 0 Z " fill="#2C2E31" transform="translate(522,553)"/>
<path d="M0 0 C1.38251953 0.50273437 1.38251953 0.50273437 2.79296875 1.015625 C3.45981689 1.2329126 4.12666504 1.4502002 4.8137207 1.67407227 C40.04444344 13.27249707 74.58391704 29.71091387 102.79296875 54.015625 C103.33888672 54.48564941 103.88480469 54.95567383 104.44726562 55.43994141 C110.38013798 60.59286175 115.78128 65.9691846 120.79296875 72.015625 C121.93708734 73.35043002 123.08283745 74.68383891 124.23046875 76.015625 C125.07609375 77.005625 125.92171875 77.995625 126.79296875 79.015625 C126.46296875 79.675625 126.13296875 80.335625 125.79296875 81.015625 C125.32890625 80.50515625 124.86484375 79.9946875 124.38671875 79.46875 C112.17454937 66.61863148 97.31930859 57.35117134 81.79296875 49.015625 C81.15472168 48.66580566 80.51647461 48.31598633 79.85888672 47.95556641 C50.13279442 31.9001267 14.87864797 24.1775809 -18.20703125 19.015625 C-14.76474263 14.13205293 -11.04580203 9.47693899 -7.14453125 4.953125 C-6.32855469 3.99277344 -5.51257813 3.03242188 -4.671875 2.04296875 C-2.20703125 0.015625 -2.20703125 0.015625 0 0 Z " fill="#2E3031" transform="translate(586.20703125,433.984375)"/>
<path d="M0 0 C1.14809278 0.71414842 2.27680501 1.46127143 3.375 2.25 C4.261875 2.8275 5.14875 3.405 6.0625 4 C9.91369412 7.74710779 12.67643106 12.15429317 14.375 17.25 C14.375 22.53 14.375 27.81 14.375 33.25 C-2.785 33.25 -19.945 33.25 -37.625 33.25 C-39.75103672 26.87188985 -39.85579638 18.86355492 -36.875 12.75 C-36.15813198 11.56268734 -35.41062746 10.39297883 -34.625 9.25 C-34.0475 8.363125 -33.47 7.47625 -32.875 6.5625 C-24.66684224 -1.87366214 -10.93047229 -5.34984728 0 0 Z " fill="#E4C473" transform="translate(520.625,308.75)"/>
<path d="M0 0 C42.57426463 2.80008495 95.26929794 19.34772927 128 48 C127.01 48.495 127.01 48.495 126 49 C123.67152418 47.92035005 121.44403898 46.77806307 119.1875 45.5625 C91.51351058 31.3495 61.09730388 25.5196275 30.76335144 19.84544373 C28.70241855 19.45909339 26.64266269 19.06692579 24.58300781 18.67382812 C22.44044198 18.27089261 20.29466914 17.88377112 18.14355469 17.52929688 C13.04301175 16.61031793 10.43126979 15.24658985 7.125 11.25 C6.40570312 10.40953125 5.68640625 9.5690625 4.9453125 8.703125 C2.93955114 5.91600279 1.44563984 3.10948947 0 0 Z " fill="#2F3031" transform="translate(567,462)"/>
<path d="M0 0 C0.99 0.66 1.98 1.32 3 2 C2.21496094 2.29132813 1.42992187 2.58265625 0.62109375 2.8828125 C-9.24271375 6.73151285 -15.63308864 10.42433841 -20.12109375 20.2890625 C-22.32961674 27.10112897 -21.6400364 34.22733421 -19.10546875 40.8671875 C-15.68895081 47.45877336 -10.68199526 51.95207234 -4 55 C-1.33972001 55.81494493 1.27182304 56.42564696 4 57 C-1.25958095 60.5063873 -7.87944385 59.51164524 -14 59 C-17.12163252 58.1482057 -19.40207222 56.90355077 -22 55 C-22.60070312 54.61070312 -23.20140625 54.22140625 -23.8203125 53.8203125 C-29.92710353 49.35257361 -34.05590732 42.51548881 -35.33398438 35.04882812 C-36.24717357 26.32745246 -35.50370403 18.13821474 -30 11 C-21.24054175 1.45464643 -12.88493986 -1.2464075 0 0 Z " fill="#DFC06E" transform="translate(585,318)"/>
<path d="M0 0 C21.78 0 43.56 0 66 0 C66 2.97 66 5.94 66 9 C56.43 9 46.86 9 37 9 C37 12.3 37 15.6 37 19 C34.03 19 31.06 19 28 19 C28 15.7 28 12.4 28 9 C18.76 9 9.52 9 0 9 C0 6.03 0 3.06 0 0 Z " fill="#E0C171" transform="translate(476,350)"/>
<path d="M0 0 C6.68183363 1.0440365 12.7465965 2.4042476 19 5 C19.34538204 8.10843835 19.23301458 9.62515045 17.5625 12.3125 C13.78636366 14.79922393 10.39620919 14.79147438 6 14 C2.50109996 11.88608123 1.29421314 10.88263941 0 7 C-0.03954234 4.66700175 -0.04401732 2.33291811 0 0 Z " fill="#2E3031" transform="translate(530,415)"/>
<path d="M0 0 C0.66 0 1.32 0 2 0 C2.598125 0.928125 3.19625 1.85625 3.8125 2.8125 C6.02761293 6.04023598 7.65800576 7.14333654 11 9 C11 9.66 11 10.32 11 11 C10.071875 11.598125 9.14375 12.19625 8.1875 12.8125 C4.95976402 15.02761293 3.85666346 16.65800576 2 20 C1.34 20 0.68 20 0 20 C-0.598125 19.071875 -1.19625 18.14375 -1.8125 17.1875 C-4.02761293 13.95976402 -5.65800576 12.85666346 -9 11 C-9 10.34 -9 9.68 -9 9 C-8.071875 8.401875 -7.14375 7.80375 -6.1875 7.1875 C-2.95976402 4.97238707 -1.85666346 3.34199424 0 0 Z " fill="#8E9092" transform="translate(988,979)"/>
<path d="M0 0 C1.9375 1.0625 1.9375 1.0625 3 3 C3.36528977 6.4093712 3.6140629 8.88023824 1.9375 11.9375 C-1.11976176 13.6140629 -3.5906288 13.36528977 -7 13 C-8.9375 11.9375 -8.9375 11.9375 -10 10 C-10.36528977 6.5906288 -10.6140629 4.11976176 -8.9375 1.0625 C-5.88023824 -0.6140629 -3.4093712 -0.36528977 0 0 Z " fill="#E2C270" transform="translate(591,341)"/>
<path d="M0 0 C3.5 0.1875 3.5 0.1875 7 1 C9 4 9 4 8.6875 6.125 C8 8 8 8 7 9 C2.96839809 9.26293056 1.44107266 9.29404844 -2 7 C-2.3125 4.5 -2.3125 4.5 -2 2 C-1.34 1.34 -0.68 0.68 0 0 Z " fill="#DEC272" transform="translate(590,442)"/>
<path d="M0 0 C4.35198942 1.62808237 6.91706256 4.87887506 9.9375 8.25 C10.44990234 8.81074219 10.96230469 9.37148438 11.49023438 9.94921875 C14.76350419 13.5510633 17.9079834 17.24174778 21 21 C20.67 21.66 20.34 22.32 20 23 C19.47792969 22.443125 18.95585938 21.88625 18.41796875 21.3125 C13.35940361 16.06789306 8.19001618 11.8156896 2.08984375 7.82421875 C1.40019531 7.22222656 0.71054687 6.62023437 0 6 C0 4 0 2 0 0 Z " fill="#343535" transform="translate(692,492)"/>
<path d="M0 0 C7.64928736 1.36787256 14.96494047 7.2704495 20 13 C15.69843286 11.66902183 11.81202643 10.00062707 7.8125 7.9375 C4.86852783 6.42292815 2.14167593 5.04722531 -1 4 C-0.67 2.68 -0.34 1.36 0 0 Z " fill="#323434" transform="translate(675,498)"/>
<path d="M0 0 C0.99 0.33 1.98 0.66 3 1 C-0.63 4.63 -4.26 8.26 -8 12 C-8.66 11.67 -9.32 11.34 -10 11 C-6.7 7.37 -3.4 3.74 0 0 Z " fill="#D1B469" transform="translate(417,411)"/>
<path d="M0 0 C4.81033104 2.54664585 8.32442148 4.99027798 12 9 C7.0276578 7.50829734 2.58154261 5.39542583 -2 3 C-1.34 2.67 -0.68 2.34 0 2 C0 1.34 0 0.68 0 0 Z " fill="#47453D" transform="translate(683,502)"/>
<path d="M0 0 C4.08055151 0.50547372 5.66272295 2.50088882 8.25 5.5625 C8.95640625 6.38878906 9.6628125 7.21507812 10.390625 8.06640625 C10.92171875 8.70449219 11.4528125 9.34257813 12 10 C11.67 10.66 11.34 11.32 11 12 C10.37351562 11.36191406 9.74703125 10.72382812 9.1015625 10.06640625 C8.28429687 9.24011719 7.46703125 8.41382813 6.625 7.5625 C5.81289063 6.73878906 5.00078125 5.91507812 4.1640625 5.06640625 C2.17651485 2.96565328 2.17651485 2.96565328 0 2 C0 1.34 0 0.68 0 0 Z " fill="#484845" transform="translate(701,503)"/>
<path d="M0 0 C3.25 -0.3125 3.25 -0.3125 7 0 C9.4375 2.5 9.4375 2.5 11 5 C9.53932801 4.54917531 8.08151968 4.08906463 6.625 3.625 C5.81289063 3.36976563 5.00078125 3.11453125 4.1640625 2.8515625 C2 2 2 2 0 0 Z " fill="#42413E" transform="translate(558,413)"/>
</svg>
